<svg width="60" height="60" viewBox="0 0 60 60" fill="none" xmlns="http://www.w3.org/2000/svg">
<circle cx="30" cy="30" r="30" fill="#F3F8FE"/>
<mask id="mask0_3050_91555" style="mask-type:alpha" maskUnits="userSpaceOnUse" x="0" y="0" width="60" height="60">
<circle cx="30" cy="30" r="30" fill="#F6F8FF"/>
</mask>
<g mask="url(#mask0_3050_91555)">
<path d="M46.2609 54.9864V59.1552C46.2609 59.6219 45.8829 60 45.4162 60H14.583C14.1163 60 13.7383 59.6219 13.7383 59.1552V54.9864C13.7383 50.6318 17.301 47.1778 21.6556 47.1356C23.0956 47.1203 24.4004 46.4114 25.2004 45.2697C26.0749 44.0204 25.9871 42.8951 25.9871 42.0492L26.0029 42.0101C22.2121 40.441 19.5459 36.7062 19.5459 32.3483C19.5459 32.3483 19.5459 32.229 19.5459 32.0178C18.6528 32.0178 17.8888 31.6022 17.4108 30.9556C17.4108 30.9545 17.4097 30.9545 17.4097 30.9534C17.1249 30.5935 16.9061 30.0199 16.9061 29.4266V19.1355C16.9061 17.5611 18.1827 16.2845 19.7571 16.2845C21.0305 13.1027 24.1117 11.0048 27.5551 11.0048C32.5799 11.0048 35.8092 10.9672 36.0786 11.102C36.1419 11.1116 36.7243 11.2153 36.7702 11.2382C37.6055 11.4302 38.5295 11.856 38.5716 11.8981C41.316 13.2793 43.1987 16.1219 43.1987 19.4037V29.2724C43.1987 30.7887 41.9696 32.0178 40.4533 32.0178V32.3483C40.4533 36.7062 37.7871 40.441 33.9963 42.0101L34.0121 42.0492C34.0121 42.8709 33.9172 44.0103 34.7988 45.2697C35.5966 46.4083 36.8996 47.1203 38.3436 47.1356C42.6982 47.1778 46.2609 50.6318 46.2609 54.9864Z" fill="#FFDFBA"/>
<path d="M43.1983 19.4037V29.2724C43.1983 30.7887 41.9692 32.0178 40.4529 32.0178V26.1711C40.4529 25.7245 40.1055 25.3549 39.6599 25.3285C34.7088 25.0333 29.7512 23.5269 25.2866 20.7056C24.8009 20.3984 24.162 20.6518 24.0142 21.2072C23.7935 22.0425 23.2972 23.1121 22.1853 23.7816C21.1627 24.3972 20.371 24.2755 20.0735 24.3982C19.762 24.5228 19.5455 24.8269 19.5455 25.1796V32.0178C18.6524 32.0178 17.8885 31.6022 17.4104 30.9556C17.4104 30.9545 17.4094 30.9545 17.4094 30.9534C17.22 30.7143 17.0311 30.3211 16.9532 29.9186C16.8853 29.5733 16.9057 30.3525 16.9057 19.1355C16.9057 17.5611 18.1823 16.2845 19.7567 16.2845C21.0236 13.1191 24.0957 11.0048 27.5547 11.0048C32.5795 11.0048 35.8088 10.9672 36.0782 11.102C36.8975 11.2261 37.7051 11.4842 38.3495 11.7904C38.3621 11.7967 38.563 11.8899 38.5713 11.8981C41.3156 13.2793 43.1983 16.1219 43.1983 19.4037Z" fill="#42434D"/>
<path d="M46.2609 54.9862V59.155C46.2609 59.6217 45.8829 59.9997 45.4162 59.9997H14.583C14.1163 59.9997 13.7383 59.6217 13.7383 59.155V54.9862C13.7383 50.6315 17.301 47.1776 21.6556 47.1354C23.0956 47.12 24.4004 46.4112 25.2004 45.2695C28.871 49.3486 28.0266 48.4101 29.3713 49.9051C29.7071 50.2778 30.2921 50.2778 30.6279 49.9051C31.8336 48.5645 30.8493 49.6584 34.7988 45.2695C35.5966 46.4081 36.8996 47.12 38.3436 47.1354C42.6982 47.1776 46.2609 50.6315 46.2609 54.9862Z" fill="#D6F4FC"/>
<path d="M36.6608 46.7828C36.6477 46.8107 35.6055 51.5518 35.6122 51.5216C35.4747 52.1453 34.6853 52.3462 34.2664 51.8639C31.4938 48.6712 31.8721 49.0876 31.5913 48.8344L34.7992 45.2695C35.2638 45.9328 35.908 46.4597 36.6608 46.7828Z" fill="#E8F8FC"/>
<path d="M25.201 45.2695L28.3328 48.7499L25.7349 51.8285C25.3197 52.3205 24.5206 52.1233 24.3821 51.4945C24.3754 51.4644 23.3526 46.8105 23.3394 46.7826C24.0922 46.4596 24.7363 45.9327 25.201 45.2695Z" fill="#E8F8FC"/>
<path d="M40.4528 32.3483C40.4528 38.1238 35.77 42.802 29.9991 42.802C24.2285 42.802 19.5454 38.124 19.5454 32.3483C19.5454 32.1792 19.5454 24.9775 19.5454 25.18C19.5454 24.7308 19.8965 24.3623 20.345 24.3367C22.0557 24.2392 23.496 23.1676 24.0145 21.2068C24.1614 20.6514 24.8008 20.3984 25.2865 20.7053C29.6073 23.4347 34.5302 25.0222 39.6598 25.3283C40.1057 25.3549 40.4528 25.7245 40.4528 26.1713V32.3483Z" fill="#FFEBD2"/>
<path d="M38.0133 14.1727H30.7231C27.4973 14.1727 24.5744 16.0184 23.1753 18.8884C23.0159 19.2158 22.7076 19.4375 22.3507 19.5104C21.0519 19.7765 20.0741 20.9253 20.0741 22.3033V24.3983C19.7626 24.5229 19.5461 24.827 19.5461 25.1797V30.1943C19.5461 31.3806 17.9998 31.8459 17.3624 30.8891C17.2174 30.6959 17.0317 30.2986 16.9749 30.0148C16.8796 29.605 16.9063 30.398 16.9063 19.1355C16.9063 17.5611 18.1829 16.2845 19.7573 16.2845C21.0359 13.09 24.1275 11.0049 27.5553 11.0049C32.5462 11.0049 35.809 10.9671 36.0788 11.102C37.0918 11.2556 38.0211 11.6286 38.1569 11.7039C38.19 11.7178 38.5561 11.8825 38.5719 11.8982C39.7091 12.4726 39.2899 14.179 38.0133 14.1727Z" fill="#4D4E59"/>
<path d="M34.1314 43.7836C31.5299 44.8726 28.671 44.9571 25.8677 43.7836C26.0109 43.1896 25.987 42.8048 25.987 42.0498L26.0028 42.0107C28.5457 43.0662 31.4484 43.0684 33.9962 42.0107L34.0121 42.0498C34.0121 42.8051 33.9882 43.1898 34.1314 43.7836Z" fill="#FFD6A6"/>
<path d="M23.8879 49.2567C19.7085 49.4467 16.3781 52.8965 16.3781 57.1223V60.0008H14.583C14.1165 60.0008 13.7383 59.6225 13.7383 59.156V54.9937C13.7383 50.6376 17.3024 47.181 21.6584 47.1362C22.254 47.13 22.822 47.005 23.3388 46.7837C23.352 46.8116 23.8812 49.2266 23.8879 49.2567Z" fill="#E8F8FC"/>
<path d="M36.1113 49.2567C40.2907 49.4467 43.6211 52.8965 43.6211 57.1223V60.0008H45.4162C45.8827 60.0008 46.2609 59.6225 46.2609 59.156V54.9937C46.2609 50.6376 42.6968 47.181 38.3408 47.1362C37.7452 47.13 37.1772 47.005 36.6604 46.7837C36.6473 46.8116 36.118 49.2266 36.1113 49.2567Z" fill="#BDEFFC"/>
<path d="M25.2675 49.7044C25.4248 50.4193 25.5927 51.1806 25.7353 51.8279C25.3201 52.3201 24.5209 52.1235 24.3824 51.4946C23.9764 49.6507 23.3482 46.8015 23.3394 46.7827C24.0922 46.4596 24.7364 45.9327 25.201 45.2695L26.1027 46.2727C25.3277 47.2378 24.9993 48.4891 25.2675 49.7044Z" fill="#F1FAFC"/>
<path d="M27.6934 23.0303C27.5077 24.5269 26.8514 25.8695 25.7566 26.6831C23.8073 28.1319 22.7132 30.4629 22.7132 32.8916V35.5164C22.7132 37.0821 20.7202 37.3661 20.2247 36.0629C19.7857 34.9087 19.5454 33.6567 19.5454 32.3486V25.1803C19.5454 24.7311 19.8965 24.3626 20.345 24.337C22.0604 24.2393 23.4973 23.1635 24.0146 21.2069C24.1614 20.6519 24.7998 20.3984 25.2852 20.7049C25.8191 21.0422 26.4 21.3856 27.0274 21.7252C27.4982 21.9803 27.7593 22.4991 27.6934 23.0303Z" fill="#FFF3E4"/>
<path d="M31.5916 48.8345L33.1681 59.9999H26.8325L28.333 48.75L29.3725 49.9047C29.708 50.2774 30.2925 50.2774 30.6281 49.9047L31.5916 48.8345Z" fill="#FE4F60"/>
<path d="M29.4364 49.9759L28.0996 59.9999H26.8325L28.333 48.75L29.4364 49.9759Z" fill="#E84857"/>
<path d="M27.8384 31.5368C27.8384 32.5317 27.8384 33.3383 26.3972 33.3383C24.9561 33.3383 24.9561 32.5317 24.9561 31.5368C24.9561 30.5419 25.6013 29.7354 26.3972 29.7354C27.1932 29.7354 27.8384 30.5419 27.8384 31.5368Z" fill="#353644"/>
<path d="M31.1583 35.7577L30.4989 32.7569C30.4511 32.5394 30.2139 32.5394 30.1661 32.7569L29.5067 35.7577C29.4838 35.8618 29.5212 35.9723 29.5957 36.0207L30.2551 36.4494C30.3038 36.4811 30.3612 36.4811 30.4099 36.4494L31.0693 36.0207C31.1438 35.9723 31.1812 35.8618 31.1583 35.7577Z" fill="#FFD6A6"/>
<path d="M30.5001 40.0002C31.5637 39.9709 32.8909 39.1172 33.4644 38.7111C33.5728 38.6343 33.5292 38.4726 33.3973 38.4573C32.7711 38.3845 31.4426 38.245 30.5001 38.2501C29.4801 38.2557 28.0394 38.3915 27.3694 38.4606C27.2351 38.4744 27.1904 38.6394 27.3018 38.7157C27.9191 39.1381 29.3636 40.0314 30.5001 40.0002Z" fill="#FFAA64"/>
<path d="M35.7647 31.5368C35.7647 32.5317 35.7647 33.3383 34.3235 33.3383C32.8823 33.3383 32.8823 32.5317 32.8823 31.5368C32.8823 30.5419 33.5276 29.7354 34.3235 29.7354C35.1194 29.7354 35.7647 30.5419 35.7647 31.5368Z" fill="#353644"/>
<circle opacity="0.1" cx="33.9633" cy="31.1766" r="0.720589" fill="white"/>
<ellipse opacity="0.1" cx="26.7577" cy="31.1766" rx="0.720587" ry="0.720589" fill="white"/>
<path d="M23.5 28.8925C23.5 28.8013 23.5361 28.7139 23.6056 28.6548C23.8995 28.405 24.786 27.75 26 27.75C27.214 27.75 28.1005 28.405 28.3944 28.6548C28.4639 28.7139 28.5 28.8013 28.5 28.8925C28.5 29.1598 28.2024 29.3351 27.9582 29.2262C27.4774 29.0119 26.7387 28.75 26 28.75C25.2613 28.75 24.5226 29.0119 24.0418 29.2262C23.7976 29.3351 23.5 29.1598 23.5 28.8925Z" fill="#353644"/>
<path d="M32.2002 28.8925C32.2002 28.8013 32.2363 28.7139 32.3058 28.6548C32.5997 28.405 33.4862 27.75 34.7002 27.75C35.9142 27.75 36.8007 28.405 37.0946 28.6548C37.1641 28.7139 37.2002 28.8013 37.2002 28.8925C37.2002 29.1598 36.9026 29.3351 36.6584 29.2262C36.1776 29.0119 35.4389 28.75 34.7002 28.75C33.9615 28.75 33.2227 29.0119 32.742 29.2262C32.4978 29.3351 32.2002 29.1598 32.2002 28.8925Z" fill="#353644"/>
</g>
</svg>
