<svg width="414" height="400" viewBox="0 0 414 400" fill="none" xmlns="http://www.w3.org/2000/svg">
<g>
<g filter="url(#filter0_d_3035_69651)">
<path d="M189.5 134.5C131.695 103.642 104.5 115.235 32.0933 74.0936C-40.3133 32.9524 -72.067 -118.698 -4.82504 -206.329C62.4169 -293.961 187.967 -310.49 275.598 -243.248C332.809 -199.348 359.715 -130.596 352.789 -63.7676C415.547 -87.7539 488.92 -79.5599 546.131 -35.6601C633.763 31.5819 650.292 157.132 583.05 244.763C515.808 332.394 371.254 351.261 302.627 281.681C234 212.102 247.305 165.358 189.5 134.5Z" fill="url(#paint0_linear_3035_69651)"/>
</g>
<g opacity="0.43">
<path d="M236.065 200.285L196.338 177.527C195.82 177.205 195.173 177.205 194.655 177.527L170.651 191.259C170.198 191.517 170.198 192.226 170.651 192.484L207.272 213.823L207.62 213.986L210.725 214.043C211.735 214.062 212.734 213.824 213.628 213.352L236.065 201.51C236.518 201.252 236.518 200.543 236.065 200.285Z" fill="#0C25BA"/>
</g>
<path d="M210.119 211.245C208.955 211.89 207.531 211.89 206.367 211.245L167.804 188.616V188.681V190.744C167.804 191.259 168.063 191.775 168.515 192.033L205.719 213.372C207.208 214.21 209.084 214.21 210.637 213.372L231.859 201.252C232.636 200.801 233.089 200.027 233.089 199.189V197.706L210.119 211.245Z" fill="url(#paint1_linear_3035_69651)"/>
<path d="M209.99 211.309L232.701 198.287C233.154 198.029 233.154 197.32 232.701 197.062L193.491 174.562C192.973 174.24 192.326 174.24 191.808 174.562L168.127 188.101C167.674 188.358 167.674 189.068 168.127 189.325L206.367 211.245C207.531 211.954 208.89 211.954 209.99 211.309Z" fill="#F7F7F9"/>
<path d="M185.144 196.61L192.52 200.865C193.361 201.317 194.785 201.252 195.755 200.736L198.473 199.189C199.443 198.609 199.508 197.835 198.732 197.319L191.356 193.064C190.514 192.613 189.091 192.678 188.12 193.193L185.403 194.741C184.432 195.256 184.368 196.095 185.144 196.61Z" fill="#97A1E1"/>
<path d="M185.144 196.61L192.52 200.865C193.361 201.317 194.785 201.252 195.755 200.736L198.473 199.189C199.443 198.609 199.508 197.835 198.732 197.319L191.356 193.064C190.514 192.613 189.091 192.678 188.12 193.193L185.403 194.741C184.432 195.256 184.368 196.095 185.144 196.61Z" fill="#BEBEED"/>
<path d="M191.485 180.363L188.961 178.881L191.485 177.463L194.008 178.881L191.485 180.363Z" fill="#97A1E1"/>
<path d="M191.485 180.363L188.961 178.881L191.485 177.463L194.008 178.881L191.485 180.363Z" fill="#BEBEED"/>
<path d="M194.526 182.104L192.002 180.621L194.526 179.204L197.049 180.686L194.526 182.104Z" fill="#97A1E1"/>
<path d="M194.526 182.104L192.002 180.621L194.526 179.204L197.049 180.686L194.526 182.104Z" fill="#BEBEED"/>
<path d="M197.567 183.845L194.979 182.362L197.567 180.944L200.091 182.427L197.567 183.845Z" fill="#97A1E1"/>
<path d="M197.567 183.845L194.979 182.362L197.567 180.944L200.091 182.427L197.567 183.845Z" fill="#BEBEED"/>
<path d="M200.608 185.585L198.02 184.167L200.543 182.685L203.132 184.167L200.608 185.585Z" fill="#97A1E1"/>
<path d="M200.608 185.585L198.02 184.167L200.543 182.685L203.132 184.167L200.608 185.585Z" fill="#BEBEED"/>
<path d="M203.584 187.326L201.061 185.908L203.584 184.425L206.172 185.908L203.584 187.326Z" fill="#97A1E1"/>
<path d="M203.584 187.326L201.061 185.908L203.584 184.425L206.172 185.908L203.584 187.326Z" fill="#BEBEED"/>
<path d="M206.625 189.067L204.102 187.649L206.625 186.167L209.149 187.649L206.625 189.067Z" fill="#97A1E1"/>
<path d="M206.625 189.067L204.102 187.649L206.625 186.167L209.149 187.649L206.625 189.067Z" fill="#BEBEED"/>
<path d="M209.666 190.807L207.143 189.389L209.666 187.907L212.19 189.389L209.666 190.807Z" fill="#97A1E1"/>
<path d="M209.666 190.807L207.143 189.389L209.666 187.907L212.19 189.389L209.666 190.807Z" fill="#BEBEED"/>
<path d="M212.707 192.612L210.119 191.13L212.707 189.647L215.231 191.13L212.707 192.612Z" fill="#97A1E1"/>
<path d="M212.707 192.612L210.119 191.13L212.707 189.647L215.231 191.13L212.707 192.612Z" fill="#BEBEED"/>
<path d="M215.749 194.353L213.161 192.871L215.684 191.389L218.272 192.871L215.749 194.353Z" fill="#97A1E1"/>
<path d="M215.749 194.353L213.161 192.871L215.684 191.389L218.272 192.871L215.749 194.353Z" fill="#BEBEED"/>
<path d="M218.725 196.094L216.201 194.612L218.725 193.129L221.313 194.612L218.725 196.094Z" fill="#97A1E1"/>
<path d="M218.725 196.094L216.201 194.612L218.725 193.129L221.313 194.612L218.725 196.094Z" fill="#BEBEED"/>
<path d="M221.766 197.834L219.242 196.352L221.766 194.87L224.289 196.352L221.766 197.834Z" fill="#97A1E1"/>
<path d="M221.766 197.834L219.242 196.352L221.766 194.87L224.289 196.352L221.766 197.834Z" fill="#BEBEED"/>
<path d="M224.807 199.575L222.283 198.093L224.807 196.61L227.33 198.093L224.807 199.575Z" fill="#97A1E1"/>
<path d="M224.807 199.575L222.283 198.093L224.807 196.61L227.33 198.093L224.807 199.575Z" fill="#BEBEED"/>
<path d="M188.249 182.233L185.726 180.75L188.249 179.333L190.773 180.75L188.249 182.233Z" fill="#97A1E1"/>
<path d="M188.249 182.233L185.726 180.75L188.249 179.333L190.773 180.75L188.249 182.233Z" fill="#BEBEED"/>
<path d="M191.291 183.974L188.768 182.492L191.291 181.074L193.815 182.492L191.291 183.974Z" fill="#97A1E1"/>
<path d="M191.291 183.974L188.768 182.492L191.291 181.074L193.815 182.492L191.291 183.974Z" fill="#BEBEED"/>
<path d="M194.332 185.714L191.809 184.232L194.332 182.814L196.855 184.232L194.332 185.714Z" fill="#97A1E1"/>
<path d="M194.332 185.714L191.809 184.232L194.332 182.814L196.855 184.232L194.332 185.714Z" fill="#BEBEED"/>
<path d="M197.373 187.455L194.785 185.973L197.308 184.555L199.896 185.973L197.373 187.455Z" fill="#97A1E1"/>
<path d="M197.373 187.455L194.785 185.973L197.308 184.555L199.896 185.973L197.373 187.455Z" fill="#BEBEED"/>
<path d="M200.414 189.195L197.826 187.713L200.35 186.295L202.938 187.777L200.414 189.195Z" fill="#97A1E1"/>
<path d="M200.414 189.195L197.826 187.713L200.35 186.295L202.938 187.777L200.414 189.195Z" fill="#BEBEED"/>
<path d="M203.39 190.936L200.867 189.518L203.39 188.036L205.914 189.518L203.39 190.936Z" fill="#97A1E1"/>
<path d="M203.39 190.936L200.867 189.518L203.39 188.036L205.914 189.518L203.39 190.936Z" fill="#BEBEED"/>
<path d="M206.432 192.678L203.908 191.26L206.432 189.777L208.955 191.26L206.432 192.678Z" fill="#97A1E1"/>
<path d="M206.432 192.678L203.908 191.26L206.432 189.777L208.955 191.26L206.432 192.678Z" fill="#BEBEED"/>
<path d="M209.473 194.418L206.95 193L209.473 191.518L211.997 193L209.473 194.418Z" fill="#97A1E1"/>
<path d="M209.473 194.418L206.95 193L209.473 191.518L211.997 193L209.473 194.418Z" fill="#BEBEED"/>
<path d="M212.513 196.159L209.925 194.741L212.513 193.258L215.037 194.741L212.513 196.159Z" fill="#97A1E1"/>
<path d="M212.513 196.159L209.925 194.741L212.513 193.258L215.037 194.741L212.513 196.159Z" fill="#BEBEED"/>
<path d="M215.555 197.964L212.967 196.481L215.49 194.999L218.078 196.481L215.555 197.964Z" fill="#97A1E1"/>
<path d="M215.555 197.964L212.967 196.481L215.49 194.999L218.078 196.481L215.555 197.964Z" fill="#BEBEED"/>
<path d="M218.531 199.704L216.007 198.222L218.531 196.739L221.054 198.222L218.531 199.704Z" fill="#97A1E1"/>
<path d="M218.531 199.704L216.007 198.222L218.531 196.739L221.054 198.222L218.531 199.704Z" fill="#BEBEED"/>
<path d="M221.572 201.445L219.049 199.962L221.572 198.48L224.096 199.962L221.572 201.445Z" fill="#97A1E1"/>
<path d="M221.572 201.445L219.049 199.962L221.572 198.48L224.096 199.962L221.572 201.445Z" fill="#BEBEED"/>
<path d="M184.95 184.166L182.362 182.684L184.885 181.202L187.473 182.684L184.95 184.166Z" fill="#97A1E1"/>
<path d="M184.95 184.166L182.362 182.684L184.885 181.202L187.473 182.684L184.95 184.166Z" fill="#BEBEED"/>
<path d="M187.926 185.907L185.403 184.425L187.926 182.942L190.514 184.425L187.926 185.907Z" fill="#97A1E1"/>
<path d="M187.926 185.907L185.403 184.425L187.926 182.942L190.514 184.425L187.926 185.907Z" fill="#BEBEED"/>
<path d="M190.967 187.648L188.444 186.165L190.967 184.748L193.491 186.165L190.967 187.648Z" fill="#97A1E1"/>
<path d="M190.967 187.648L188.444 186.165L190.967 184.748L193.491 186.165L190.967 187.648Z" fill="#BEBEED"/>
<path d="M194.008 189.389L191.485 187.907L194.008 186.489L196.532 187.907L194.008 189.389Z" fill="#97A1E1"/>
<path d="M194.008 189.389L191.485 187.907L194.008 186.489L196.532 187.907L194.008 189.389Z" fill="#BEBEED"/>
<path d="M197.05 191.13L194.526 189.647L197.05 188.229L199.573 189.647L197.05 191.13Z" fill="#97A1E1"/>
<path d="M197.05 191.13L194.526 189.647L197.05 188.229L199.573 189.647L197.05 191.13Z" fill="#BEBEED"/>
<path d="M200.091 192.87L197.502 191.388L200.026 189.97L202.614 191.452L200.091 192.87Z" fill="#97A1E1"/>
<path d="M200.091 192.87L197.502 191.388L200.026 189.97L202.614 191.452L200.091 192.87Z" fill="#BEBEED"/>
<path d="M203.131 194.611L200.543 193.128L203.066 191.71L205.654 193.193L203.131 194.611Z" fill="#97A1E1"/>
<path d="M203.131 194.611L200.543 193.128L203.066 191.71L205.654 193.193L203.131 194.611Z" fill="#BEBEED"/>
<path d="M206.108 196.352L203.584 194.934L206.108 193.452L208.631 194.934L206.108 196.352Z" fill="#97A1E1"/>
<path d="M206.108 196.352L203.584 194.934L206.108 193.452L208.631 194.934L206.108 196.352Z" fill="#BEBEED"/>
<path d="M209.149 198.092L206.625 196.674L209.149 195.192L211.672 196.674L209.149 198.092Z" fill="#97A1E1"/>
<path d="M209.149 198.092L206.625 196.674L209.149 195.192L211.672 196.674L209.149 198.092Z" fill="#BEBEED"/>
<path d="M212.19 199.833L209.667 198.415L212.19 196.933L214.713 198.415L212.19 199.833Z" fill="#97A1E1"/>
<path d="M212.19 199.833L209.667 198.415L212.19 196.933L214.713 198.415L212.19 199.833Z" fill="#BEBEED"/>
<path d="M215.231 201.638L212.643 200.156L215.166 198.673L217.755 200.156L215.231 201.638Z" fill="#97A1E1"/>
<path d="M215.231 201.638L212.643 200.156L215.166 198.673L217.755 200.156L215.231 201.638Z" fill="#BEBEED"/>
<path d="M218.272 203.379L215.684 201.896L218.207 200.414L220.795 201.896L218.272 203.379Z" fill="#97A1E1"/>
<path d="M218.272 203.379L215.684 201.896L218.207 200.414L220.795 201.896L218.272 203.379Z" fill="#BEBEED"/>
<path d="M186.697 201.832L185.403 201.058C185.209 200.929 185.079 200.672 185.079 200.414C185.079 200.156 185.209 200.027 185.403 200.156L186.697 200.929C186.891 201.058 187.02 201.316 187.02 201.574C187.02 201.832 186.891 201.896 186.697 201.832Z" fill="white"/>
<path d="M236.454 167.793C236.259 166.503 235.483 165.407 234.383 164.763L196.856 143.166C196.338 142.843 195.756 142.908 195.303 143.166L193.426 144.326C193.879 144.068 194.462 144.068 194.979 144.326L232.507 165.923C233.607 166.568 234.383 167.664 234.577 168.889C234.642 169.147 234.642 169.404 234.642 169.662V194.547C234.642 195.321 234.254 195.966 233.671 196.352L235.483 195.321C236.13 194.999 236.583 194.289 236.583 193.516V168.631C236.518 168.244 236.454 167.986 236.454 167.793Z" fill="url(#paint2_linear_3035_69651)"/>
<path d="M193.297 144.39C193.297 144.326 193.297 144.326 193.297 144.39C193.361 144.326 193.361 144.326 193.361 144.326C193.814 144.068 194.396 144.068 194.914 144.326L232.442 165.858C233.8 166.632 234.577 168.05 234.577 169.598V194.483C234.577 195.256 234.189 195.901 233.606 196.223C233.024 196.61 232.183 196.675 231.536 196.288L194.785 175.4C193.491 174.626 192.649 173.272 192.649 171.725V145.68C192.585 145.099 192.844 144.648 193.297 144.39Z" fill="#F7F7F9"/>
<path d="M231.925 166.89L194.462 145.357C194.009 145.099 193.491 145.422 193.491 145.938L193.556 171.661C193.556 172.886 194.203 174.046 195.303 174.626L231.148 194.999C232.119 195.579 233.348 194.87 233.348 193.709V169.404C233.348 168.373 232.83 167.406 231.925 166.89Z" fill="#5D83F6"/>
<path d="M231.536 185.715L229.789 184.684V185.006L231.536 185.973V185.715Z" fill="#F7F7F9"/>
<path d="M226.101 178.946V179.268L230.371 181.782V181.459L226.101 178.946Z" fill="#F7F7F9"/>
<path d="M226.101 179.59V179.848L229.012 181.588V181.266L226.101 179.59Z" fill="#F7F7F9"/>
<path d="M231.536 182.749L229.271 181.396V181.718L231.536 183.071V182.749Z" fill="#F7F7F9"/>
<path d="M226.101 180.171V180.493L231.536 183.652V183.33L226.101 180.171Z" fill="#F7F7F9"/>
<path d="M231.536 183.973L227.136 181.396V181.718L231.536 184.296V183.973Z" fill="#F7F7F9"/>
<path d="M226.101 181.912V182.234L231.536 185.393V185.071L226.101 181.912Z" fill="#F7F7F9"/>
<path d="M226.101 182.492V182.814L229.53 184.812V184.49L226.101 182.492Z" fill="#F7F7F9"/>
<path d="M226.101 183.136V183.459L231.471 186.618V186.295L226.101 183.136Z" fill="#F7F7F9"/>
<path d="M231.536 187.068L227.071 184.426V184.748L231.536 187.39V187.068Z" fill="#F7F7F9"/>
<path d="M226.101 184.49V184.812L231.536 187.971V187.649L226.101 184.49Z" fill="#F7F7F9"/>
<path d="M226.101 185.07V185.393L229.659 187.519V187.197L226.101 185.07Z" fill="#F7F7F9"/>
<path d="M231.536 188.294L229.983 187.392V187.649L231.536 188.616V188.294Z" fill="#F7F7F9"/>
<path d="M226.101 186.295V186.617L228.948 188.293V187.971L226.101 186.295Z" fill="#F7F7F9"/>
<path d="M231.536 189.518L229.271 188.165V188.487L231.536 189.776V189.518Z" fill="#F7F7F9"/>
<path d="M226.101 188.165V188.487L230.047 190.807V190.485L226.101 188.165Z" fill="#F7F7F9"/>
<path d="M226.101 188.81V189.132L231.406 192.226V191.904L226.101 188.81Z" fill="#F7F7F9"/>
<path d="M210.723 179.564C213.062 180.913 215.294 181.121 216.974 180.166C218.658 179.209 219.606 177.19 219.606 174.489C219.606 171.785 218.664 168.827 217.16 166.233C215.657 163.64 213.566 161.363 211.22 160.049C208.879 158.7 206.647 158.515 204.969 159.48C203.29 160.446 202.339 162.462 202.339 165.126C202.339 167.793 203.283 170.731 204.786 173.324C206.289 175.917 208.379 178.212 210.723 179.564Z" fill="#001C87" stroke="#474AB6"/>
<path d="M214.131 172.443C213.499 171.893 212.947 171.263 212.473 170.476C212.236 170.004 212.236 169.532 212.473 169.375C212.789 169.217 213.105 168.903 213.342 168.431C213.657 168.509 213.973 168.431 213.973 168.037C213.973 167.644 213.815 167.172 213.578 167.014C213.499 165.283 212.947 163.553 210.973 162.451C208.998 161.349 208.446 162.372 208.367 164.025C208.13 163.946 207.972 164.182 207.972 164.575C207.972 164.969 208.288 165.441 208.604 165.756C208.762 166.385 209.077 167.014 209.472 167.644C209.709 168.116 209.709 168.588 209.472 168.745C208.998 168.981 208.446 168.981 207.814 168.824C207.024 168.588 206.393 169.06 206.393 170.083V171.814C206.393 172.129 206.629 172.601 206.945 172.758L215.079 177.479C215.395 177.636 215.632 177.479 215.632 177.164V175.433C215.553 174.332 214.921 173.151 214.131 172.443Z" fill="white"/>
<path d="M224.224 170.243C224.224 169.082 225.065 168.567 226.101 169.147V165.988C223.513 164.505 221.377 165.73 221.377 168.696L224.224 170.372C224.224 170.372 224.224 170.307 224.224 170.243Z" fill="#FFD33F"/>
<path d="M224.224 170.372L221.377 168.695C221.377 170.243 221.895 171.919 222.736 173.402L224.807 172.177C224.483 171.596 224.224 170.952 224.224 170.372Z" fill="#474AB6"/>
<path d="M230.825 174.175C230.825 171.145 228.689 167.535 226.101 166.052V169.211C227.137 169.856 227.978 171.274 227.978 172.499C227.978 173.66 227.137 174.175 226.101 173.595C225.584 173.337 225.131 172.822 224.807 172.241L222.737 173.466C223.578 174.949 224.743 176.238 226.101 177.012C228.689 178.43 230.825 177.27 230.825 174.175C230.825 174.24 230.825 174.24 230.825 174.175Z" fill="url(#paint3_linear_3035_69651)"/>
<path d="M197.114 159.991V160.829L196.338 160.378L196.403 159.54L197.114 159.991Z" fill="#F0F0FC"/>
<path d="M197.115 158.251V159.089L196.403 158.638V157.8L197.115 158.251Z" fill="#F0F0FC"/>
<path d="M197.18 156.51V157.413L196.403 156.961V156.059L197.18 156.51Z" fill="#F0F0FC"/>
<path d="M197.18 154.834V155.672L196.403 155.221V154.383L197.18 154.834Z" fill="#F0F0FC"/>
<path opacity="0.2" d="M197.179 153.094V153.932L196.467 153.48V152.643L197.179 153.094Z" fill="#F0F0FC"/>
<path opacity="0.2" d="M197.243 151.353L197.179 152.191L196.467 151.74V150.902L197.243 151.353Z" fill="#F0F0FC"/>
<path opacity="0.2" d="M198.279 160.636V161.539L197.502 161.087V160.25L198.279 160.636Z" fill="#F0F0FC"/>
<path d="M198.279 158.96V159.798L197.502 159.347L197.567 158.509L198.279 158.96Z" fill="#F0F0FC"/>
<path d="M198.279 157.219V158.057L197.567 157.605V156.768L198.279 157.219Z" fill="#F0F0FC"/>
<path d="M198.344 155.479V156.317L197.567 155.866V155.028L198.344 155.479Z" fill="#F0F0FC"/>
<path opacity="0.2" d="M198.344 153.738V154.64L197.567 154.189L197.632 153.287L198.344 153.738Z" fill="#F0F0FC"/>
<path d="M199.444 161.346V162.184L198.667 161.797V160.895L199.444 161.346Z" fill="#F0F0FC"/>
<path d="M199.444 159.604V160.507L198.667 160.056L198.732 159.218L199.444 159.604Z" fill="#F0F0FC"/>
<path opacity="0.2" d="M199.508 157.929L199.444 158.767L198.732 158.315V157.478L199.508 157.929Z" fill="#F0F0FC"/>
<path d="M199.508 156.188V157.026L198.732 156.575V155.737L199.508 156.188Z" fill="#F0F0FC"/>
<path d="M199.508 154.447V155.285L198.732 154.834L198.797 153.996L199.508 154.447Z" fill="#F0F0FC"/>
<path d="M200.544 161.99V162.828L199.767 162.441V161.539L200.544 161.99Z" fill="#F0F0FC"/>
<path d="M200.544 160.249V161.151L199.767 160.7V159.862L200.544 160.249Z" fill="#F0F0FC"/>
<path d="M200.543 158.573V159.411L199.832 158.96V158.122L200.543 158.573Z" fill="#F0F0FC"/>
<path d="M200.608 156.833L200.543 157.67L199.832 157.219V156.381L200.608 156.833Z" fill="#F0F0FC"/>
<path d="M200.608 155.092V155.93L199.832 155.478V154.641L200.608 155.092Z" fill="#F0F0FC"/>
<path d="M200.608 153.352V154.254L199.896 153.803V152.9L200.608 153.352Z" fill="#F0F0FC"/>
<path opacity="0.43" d="M296.027 199.481L280.951 190.713C280.304 190.326 279.075 190.391 278.299 190.842L248.471 208.184C247.694 208.635 247.63 209.345 248.277 209.731L258.823 219.982H262.835L295.833 201.028C296.61 200.577 296.739 199.868 296.027 199.481Z" fill="#0C25BA"/>
<path d="M291.369 199.803L259.988 218.048C259.147 218.499 257.917 218.564 257.205 218.177L241.353 208.958C241.03 208.765 240.9 208.507 240.9 208.313V208.894V209.216V209.796C240.9 210.054 241.03 210.312 241.418 210.505L257.27 219.724C257.982 220.111 259.211 220.111 260.052 219.595L291.433 201.351C291.886 201.093 292.145 200.706 292.08 200.384V199.868C292.08 199.803 292.08 199.803 292.08 199.803V199.352V198.901C292.016 199.223 291.821 199.546 291.369 199.803Z" fill="url(#paint4_linear_3035_69651)"/>
<path d="M241.353 208.958L257.206 218.177C257.917 218.564 259.147 218.564 259.988 218.048L291.369 199.803C291.822 199.545 292.016 199.223 292.016 198.901V198.836V198.772C291.951 198.578 291.822 198.385 291.563 198.192L275.711 188.973C274.999 188.586 273.769 188.586 272.928 189.101L241.547 207.346C241.095 207.604 240.836 207.991 240.9 208.313C240.9 208.507 241.03 208.765 241.353 208.958Z" fill="#F0F0FC"/>
<path d="M257.658 217.403L242.583 208.635C241.936 208.248 242 207.539 242.777 207.088L272.605 189.746C273.381 189.294 274.546 189.23 275.258 189.617L290.333 198.385C290.98 198.771 290.916 199.481 290.139 199.932L260.311 217.274C259.535 217.725 258.37 217.79 257.658 217.403Z" fill="#5D83F6"/>
<g opacity="0.5">
<path d="M261.217 212.44C261.282 212.44 261.347 212.44 261.347 212.44C261.412 212.44 261.412 212.375 261.347 212.375C261.282 212.375 261.217 212.375 261.217 212.375C261.152 212.375 261.152 212.44 261.217 212.44Z" fill="white"/>
<path d="M260.764 212.698C260.829 212.698 260.894 212.698 260.894 212.698C260.959 212.698 260.959 212.633 260.894 212.633C260.829 212.633 260.764 212.633 260.764 212.633C260.764 212.633 260.764 212.633 260.764 212.698Z" fill="white"/>
<path d="M260.376 212.891C260.441 212.891 260.506 212.891 260.506 212.891C260.571 212.891 260.571 212.826 260.506 212.826C260.441 212.826 260.376 212.826 260.376 212.826V212.891Z" fill="white"/>
<path d="M259.988 213.148C260.053 213.148 260.117 213.148 260.117 213.148C260.182 213.148 260.182 213.083 260.117 213.083C260.053 213.083 259.988 213.083 259.988 213.083C259.988 213.083 259.988 213.084 259.988 213.148Z" fill="white"/>
<path d="M259.6 213.342C259.664 213.342 259.729 213.342 259.729 213.342C259.794 213.342 259.794 213.277 259.729 213.277C259.664 213.277 259.6 213.277 259.6 213.277C259.6 213.277 259.535 213.342 259.6 213.342Z" fill="white"/>
<path d="M259.212 213.6C259.277 213.6 259.341 213.6 259.341 213.6C259.406 213.6 259.406 213.535 259.341 213.535C259.277 213.535 259.212 213.535 259.212 213.535C259.147 213.535 259.147 213.535 259.212 213.6Z" fill="white"/>
<path d="M258.823 213.793C258.888 213.793 258.953 213.793 258.953 213.793C259.018 213.793 259.018 213.728 258.953 213.728C258.888 213.728 258.823 213.728 258.823 213.728C258.758 213.728 258.758 213.793 258.823 213.793Z" fill="white"/>
<path d="M258.435 214.051C258.5 214.051 258.565 214.051 258.565 214.051C258.63 214.051 258.63 213.986 258.565 213.986C258.5 213.986 258.435 213.986 258.435 213.986C258.371 213.986 258.371 214.051 258.435 214.051Z" fill="white"/>
<path d="M258.047 214.309C258.112 214.309 258.177 214.309 258.177 214.309C258.242 214.309 258.242 214.244 258.177 214.244C258.112 214.244 258.047 214.244 258.047 214.244C257.982 214.244 257.982 214.244 258.047 214.309Z" fill="white"/>
<path d="M257.658 214.503C257.723 214.503 257.788 214.503 257.788 214.503C257.853 214.503 257.853 214.438 257.788 214.438C257.723 214.438 257.658 214.438 257.658 214.438C257.594 214.438 257.594 214.503 257.658 214.503Z" fill="white"/>
<path d="M258.953 211.214L260.441 212.052L260.57 211.988L259.147 211.085L258.953 211.214Z" fill="white"/>
<path d="M258.564 211.472L260.053 212.31L260.247 212.181L258.759 211.343L258.564 211.472Z" fill="white"/>
<path d="M258.176 211.665L259.664 212.503L259.859 212.374L258.37 211.536L258.176 211.665Z" fill="white"/>
<path d="M256.623 211.214L259.276 212.697L259.47 212.632L256.817 211.085L256.623 211.214Z" fill="white"/>
<path d="M256.429 211.858L257.917 212.761L258.111 212.632L256.623 211.794L256.429 211.858Z" fill="white"/>
<path d="M256.105 212.117L257.594 212.955L257.788 212.826L256.3 211.988L256.105 212.117Z" fill="white"/>
<path d="M255.717 212.31L257.205 213.147L257.4 213.083L255.911 212.181L255.717 212.31Z" fill="white"/>
<path d="M255.911 209.28L258.952 211.02L258.758 211.085L255.717 209.345L255.911 209.28Z" fill="white"/>
<path d="M255.588 209.731L258.371 211.343L258.565 211.214L255.782 209.603L255.588 209.731Z" fill="white"/>
<path d="M255.135 209.667L258.176 211.407L257.982 211.536L254.941 209.796L255.135 209.667Z" fill="white"/>
<path d="M254.812 209.925L256.3 210.763L256.106 210.892L254.618 209.989L254.812 209.925Z" fill="white"/>
<path d="M254.1 210.311L256.429 211.664L256.3 211.793L253.906 210.44L254.1 210.311Z" fill="white"/>
<path d="M253.711 210.505L256.105 211.858L255.911 211.987L253.517 210.634L253.711 210.505Z" fill="white"/>
<path d="M253.324 210.763L255.718 212.117L255.523 212.181L253.129 210.828L253.324 210.763Z" fill="white"/>
<path d="M254.424 212.117L255.912 212.955L256.106 212.826L254.618 211.988L254.424 212.117Z" fill="white"/>
<path d="M252.87 211.021L254.423 211.859L254.229 211.988L252.676 211.085L252.87 211.021Z" fill="white"/>
<path d="M252.547 211.214L255.718 213.083L255.523 213.147L252.353 211.343L252.547 211.214Z" fill="white"/>
<path d="M252.159 211.408L255.394 213.277L255.2 213.406L251.965 211.537L252.159 211.408Z" fill="white"/>
<path d="M261.929 212.761L263.158 213.47L262.964 213.535L261.735 212.826L261.929 212.761Z" fill="white"/>
<path d="M261.541 212.955L262.77 213.664L262.576 213.792L261.347 213.083L261.541 212.955Z" fill="white"/>
<path d="M260.829 213.406L262.641 214.437L262.447 214.566L260.635 213.535L260.829 213.406Z" fill="white"/>
<path d="M261.994 214.824L261.8 214.953L260.376 214.115L260.506 214.051L261.994 214.824Z" fill="white"/>
<path d="M263.741 213.792L263.546 213.921L263.158 213.664L263.352 213.535L263.741 213.792Z" fill="white"/>
<path d="M263.417 213.986L263.223 214.115L262.77 213.857L262.964 213.792L263.417 213.986Z" fill="white"/>
<path d="M260.764 215.533L260.57 215.662L259.987 215.275L260.181 215.211L260.764 215.533Z" fill="white"/>
<path d="M260.376 215.727L260.181 215.855L259.599 215.533L259.793 215.404L260.376 215.727Z" fill="white"/>
</g>
<path d="M275.064 202.834C272.734 204.187 268.917 204.187 266.652 202.834C264.323 201.48 264.323 199.288 266.652 197.934H266.717L264.711 196.773H264.647C261.217 198.772 261.153 201.995 264.582 203.994C268.011 205.993 273.575 205.993 277.069 203.994C277.069 203.994 277.069 203.994 277.134 203.994L275.064 202.834C275.064 202.834 275.064 202.769 275.064 202.834Z" fill="url(#paint5_linear_3035_69651)"/>
<path d="M264.582 196.837L266.587 197.997C268.917 196.708 272.605 196.708 274.934 197.997L277.004 196.837C273.575 194.839 268.011 194.839 264.582 196.837Z" fill="#474AB6"/>
<path d="M274.934 197.934C274.934 197.998 274.998 197.998 274.934 197.934C277.263 199.288 277.263 201.48 274.998 202.834L277.004 203.994C280.433 201.995 280.433 198.772 277.004 196.838C277.004 196.838 274.934 197.934 274.934 197.934Z" fill="#F0F0FC"/>
<path opacity="0.43" d="M184.156 138.623L163.516 126.696C164.357 125.6 164.81 124.375 164.875 123.215C164.875 123.022 164.875 122.893 164.875 122.699C164.875 122.699 164.875 121.99 164.875 121.023H164.81C164.81 120.894 164.875 120.701 164.875 120.572C164.939 119.798 164.745 119.024 164.486 118.315C164.357 117.993 164.228 117.606 164.033 117.284C163.257 115.994 162.028 114.77 160.216 113.738C157.369 112.126 154.005 111.224 150.446 110.966C149.281 110.901 148.181 110.901 147.017 110.901C143.393 111.095 139.835 111.997 137.052 113.609C136.858 113.738 136.599 113.867 136.405 113.996C134.529 115.221 133.3 116.639 132.717 118.186C132.459 118.831 132.329 119.476 132.329 120.12C132.329 120.249 132.329 120.443 132.329 120.572C132.329 120.701 132.329 120.83 132.394 120.959C132.394 121.023 132.394 121.023 132.394 121.087H132.329C132.329 122.377 132.329 123.279 132.329 123.279C132.523 125.536 134.076 127.792 137.117 129.533C139.511 130.887 142.423 131.725 145.528 132.112C150.575 132.692 155.946 131.854 159.892 129.726C159.957 129.855 160.087 129.984 160.151 130.049L181.956 142.685C181.956 142.685 182.021 142.685 182.021 142.749C182.344 142.878 182.733 142.878 183.121 142.62C184.027 142.104 184.738 140.879 184.738 139.848C184.738 139.139 184.48 138.752 184.156 138.623Z" fill="#0C25BA"/>
<path d="M162.545 120.829H160.799C160.022 121.667 159.052 122.505 157.822 123.214C151.481 126.825 141.194 126.825 134.853 123.214C133.623 122.505 132.588 121.667 131.812 120.829H130C130 122.118 130 123.021 130 123.021C130.194 125.277 131.747 127.534 134.788 129.275C137.182 130.628 140.094 131.466 143.199 131.853C148.311 132.434 153.875 131.595 157.822 129.339C160.863 127.598 162.416 125.342 162.545 123.021C162.545 122.828 162.545 122.699 162.545 122.505C162.545 122.505 162.545 121.861 162.545 120.829Z" fill="url(#paint6_linear_3035_69651)"/>
<path d="M130.065 120.378C130.065 120.507 130.065 120.636 130.129 120.765C130.129 120.958 130.194 121.087 130.194 121.151C130.259 121.409 130.259 121.538 130.323 121.667C130.453 122.054 130.582 122.312 130.712 122.634C130.776 122.828 130.906 122.957 130.97 123.086C131.747 124.375 133.041 125.664 134.853 126.696C141.258 130.371 151.546 130.371 157.887 126.76C160.928 125.02 162.481 122.763 162.61 120.442C162.675 119.669 162.481 118.895 162.222 118.186C162.092 117.864 161.963 117.477 161.769 117.154C160.993 115.865 159.763 114.64 157.952 113.609C155.105 111.997 151.74 111.094 148.181 110.836C147.017 110.772 145.917 110.772 144.752 110.772C141.129 110.965 137.57 111.868 134.788 113.48C134.594 113.609 134.335 113.738 134.141 113.866C132.265 115.091 131.035 116.51 130.453 118.057C130.194 118.702 130.065 119.346 130.065 119.991C130 120.056 130 120.184 130.065 120.378Z" fill="#F0F0FC"/>
<path d="M132.07 120.314C132.07 120.442 132.07 120.507 132.135 120.636C132.135 120.829 132.2 120.894 132.2 120.958C132.264 121.152 132.264 121.281 132.329 121.409C132.459 121.732 132.523 121.99 132.653 122.248C132.717 122.377 132.782 122.505 132.847 122.634C133.494 123.73 134.658 124.826 136.211 125.729C141.711 128.888 150.446 128.888 155.881 125.793C158.469 124.311 159.828 122.377 159.892 120.442C159.892 119.733 159.763 119.153 159.569 118.508C159.44 118.186 159.375 117.928 159.181 117.67C158.534 116.574 157.434 115.478 155.946 114.64C153.552 113.222 150.64 112.513 147.599 112.319C146.628 112.255 145.658 112.255 144.687 112.319C141.582 112.513 138.541 113.222 136.211 114.576C136.017 114.705 135.823 114.769 135.694 114.898C134.076 115.93 133.041 117.155 132.588 118.444C132.394 118.96 132.264 119.54 132.264 120.056C132.07 120.056 132.07 120.185 132.07 120.314Z" fill="#5D83F6"/>
<path d="M147.6 115.478C146.759 115.994 145.335 115.994 144.429 115.478C143.524 114.963 143.524 114.125 144.429 113.674C145.271 113.158 146.694 113.158 147.6 113.674C148.441 114.189 148.441 114.963 147.6 115.478Z" fill="white"/>
<path d="M151.094 115.542C150.705 115.736 150.123 115.736 149.799 115.542C149.411 115.349 149.411 114.962 149.799 114.769C150.188 114.576 150.77 114.576 151.094 114.769C151.417 114.962 151.482 115.349 151.094 115.542Z" fill="white"/>
<path d="M179.238 141.395C179.238 140.363 179.95 139.138 180.856 138.623C181.244 138.429 181.568 138.365 181.827 138.429L160.281 125.987C159.957 125.729 159.569 125.729 159.051 126.051C158.145 126.567 157.434 127.792 157.434 128.823C157.434 129.339 157.628 129.662 157.887 129.855L179.691 142.491C179.368 142.169 179.238 141.846 179.238 141.395Z" fill="#F0F0FC"/>
<path d="M181.826 138.429C181.568 138.365 181.244 138.365 180.856 138.623C179.95 139.139 179.238 140.363 179.238 141.395C179.238 141.846 179.432 142.233 179.691 142.362C179.691 142.362 179.756 142.362 179.756 142.426C180.079 142.555 180.468 142.555 180.856 142.298C181.762 141.782 182.473 140.557 182.473 139.525C182.409 138.945 182.15 138.558 181.826 138.429Z" fill="url(#paint7_linear_3035_69651)"/>
<path d="M357.56 137.462L255.524 78.4729C248.73 74.5402 240.577 73.8311 233.33 76.3454L232.878 76.0875L230.225 77.6348C229.707 77.8926 229.125 78.215 228.607 78.4729L185.58 103.358L185.645 103.422L175.098 109.547C169.404 112.835 169.404 121.022 175.098 124.31L275.323 182.268C284.51 187.554 295.769 187.554 304.956 182.268L358.724 151.194L358.595 151.129C363.059 147.519 362.736 140.428 357.56 137.462Z" fill="#001C87"/>
<path d="M357.948 136.882L255.718 78.0221C248.73 74.025 240.383 73.3803 232.943 76.088L232.49 75.8301L175.034 108.903C170.763 111.353 169.728 116.575 171.863 120.443C172.575 119.153 173.61 118.057 175.034 117.219L192.309 107.291L228.672 86.3386C237.019 81.5034 247.307 81.5034 255.653 86.3386L357.883 145.199C359.178 145.972 360.148 147.004 360.86 148.164C363.06 144.425 362.089 139.268 357.948 136.882Z" fill="url(#paint8_linear_3035_69651)"/>
<path d="M262.84 165.08C254.688 160.374 254.623 152.702 262.776 147.996C270.928 143.29 284.192 143.29 292.345 148.06C300.497 152.766 300.562 160.438 292.409 165.145C284.322 169.851 271.057 169.786 262.84 165.08ZM291.374 148.576C283.739 144.128 271.316 144.128 263.746 148.512C256.176 152.895 256.176 160.052 263.811 164.5C271.446 168.948 283.869 168.948 291.439 164.564C299.009 160.18 299.009 153.024 291.374 148.576Z" fill="#474AB6"/>
<path d="M293.574 163.92C292.603 163.34 291.115 163.34 290.144 163.92C290.08 163.92 290.08 163.985 290.08 163.985C283.156 167.917 271.963 167.853 265.04 163.856C258.052 159.859 258.052 153.283 264.975 149.286C271.833 145.353 282.962 145.289 289.95 149.221C289.95 149.221 289.95 149.221 290.015 149.286C290.015 149.286 290.08 149.286 290.144 149.35C290.144 149.35 290.144 149.35 290.209 149.35C291.18 149.801 292.603 149.801 293.509 149.286C294.415 148.77 294.415 147.932 293.638 147.416C293.574 147.416 293.574 147.352 293.574 147.352C293.509 147.287 293.444 147.287 293.379 147.287C284.515 142.323 270.41 142.388 261.675 147.416C252.876 152.509 252.94 160.826 261.805 165.919C270.539 171.012 284.709 171.076 293.509 166.112C293.574 166.048 293.638 166.048 293.768 165.983C294.544 165.338 294.544 164.436 293.574 163.92Z" fill="url(#paint9_linear_3035_69651)"/>
<path d="M281.498 154.282C280.726 154.611 279.917 154.834 279 154.918C278.471 154.926 278.044 154.721 278.004 154.44C277.999 154.089 277.851 153.668 277.527 153.251C277.735 153.002 277.801 152.684 277.445 152.513C277.09 152.343 276.594 152.28 276.349 152.424C274.75 151.744 272.945 151.49 271.092 152.784C269.24 154.079 269.925 155.019 271.385 155.806C271.211 155.985 271.356 156.229 271.712 156.4C272.068 156.57 272.632 156.492 273.053 156.344C273.691 156.476 274.397 156.465 275.138 156.384C275.667 156.376 276.094 156.58 276.134 156.861C276.142 157.389 275.902 157.885 275.486 158.384C274.93 158.991 275.083 159.763 276.008 160.206L277.573 160.957C277.857 161.094 278.387 161.086 278.666 160.87L286.463 155.616C286.742 155.4 286.703 155.119 286.418 154.983L284.853 154.232C283.823 153.825 282.481 153.881 281.498 154.282Z" fill="white"/>
<path d="M233.331 125.342C232.813 125.664 232.037 125.664 231.648 125.406L220.584 119.024C220.131 118.766 220.196 118.315 220.714 118.057C221.231 117.734 222.008 117.734 222.396 117.992L233.46 124.375C233.913 124.632 233.848 125.019 233.331 125.342Z" fill="url(#paint10_linear_3035_69651)"/>
<path d="M213.92 134.883C213.402 135.205 212.626 135.205 212.238 134.947L211.138 134.303C210.685 134.045 210.75 133.594 211.267 133.336C211.785 133.014 212.561 133.014 212.95 133.271L214.049 133.916C214.438 134.109 214.373 134.56 213.92 134.883Z" fill="#FFD33F"/>
<path d="M223.197 130.699C222.679 131.021 221.903 131.021 221.514 130.763L215.303 127.218C214.85 126.96 214.915 126.508 215.432 126.25C215.95 125.928 216.726 125.928 217.115 126.186L223.326 129.732C223.714 129.925 223.714 130.377 223.197 130.699Z" fill="#FFD33F"/>
<path d="M243.295 138.623C243.23 138.623 243.23 138.623 243.295 138.623C243.23 138.558 243.23 138.558 243.165 138.558C238.701 136.109 231.648 136.109 227.313 138.623L229.966 140.106C232.942 138.429 237.73 138.429 240.706 140.106C243.683 141.846 243.683 144.618 240.706 146.359C237.73 148.1 232.877 148.1 229.836 146.359C229.836 146.359 229.772 146.359 229.772 146.295L227.184 147.777C227.184 147.777 227.248 147.777 227.248 147.842C231.713 150.421 238.895 150.421 243.295 147.842C247.694 145.328 247.63 141.202 243.295 138.623Z" fill="url(#paint11_linear_3035_69651)"/>
<path d="M229.966 140.106C229.901 140.106 229.901 140.17 229.966 140.106C226.925 141.846 226.925 144.619 229.901 146.359L227.313 147.842C222.913 145.263 222.913 141.137 227.313 138.623C227.313 138.623 229.966 140.106 229.966 140.106Z" fill="#474AB6"/>
<path d="M247.824 136.431C250.8 138.171 255.717 138.171 258.694 136.431C261.67 134.69 261.67 131.918 258.629 130.177C258.629 130.177 258.564 130.177 258.564 130.113L261.152 128.63C261.152 128.63 261.217 128.63 261.217 128.694C265.682 131.273 265.682 135.399 261.282 137.978C256.882 140.557 249.7 140.492 245.236 137.978C245.236 137.978 245.171 137.978 245.171 137.913L247.824 136.431C247.759 136.431 247.759 136.431 247.824 136.431Z" fill="#474AB6"/>
<path d="M261.282 128.694L258.694 130.177C255.718 128.501 250.93 128.501 247.954 130.177L245.301 128.694C249.701 126.18 256.818 126.18 261.282 128.694Z" fill="#FFD33F"/>
<path d="M247.953 130.177C247.888 130.177 247.888 130.242 247.953 130.177C244.912 131.918 244.912 134.69 247.888 136.431L245.3 137.913C240.901 135.335 240.901 131.209 245.3 128.694L247.953 130.177Z" fill="#474AB6"/>
<path d="M235.271 60.5506C239.477 63.0004 243.553 66.3528 247.37 70.7367L246.982 71.6392C248.6 72.7352 252.676 71.3169 254.035 72.8641L257.27 65.1923C253.388 60.8729 249.376 57.456 245.17 55.0062C241.288 52.7498 237.924 51.7828 235.077 52.0406C233.847 52.1696 232.747 52.4919 231.712 53.0721L222.395 58.2941C223.236 57.9073 224.142 57.6494 225.177 57.585C228.024 57.3271 231.389 58.3586 235.271 60.5506Z" fill="url(#paint12_linear_3035_69651)"/>
<path d="M245.688 91.5606C239.994 88.2727 237.083 82.277 237.083 73.6382C237.083 72.9935 237.083 72.3488 237.147 71.7686C236.5 71.3173 235.853 70.866 235.206 70.4792C232.683 68.9964 230.742 69.0609 229.318 70.6081C227.895 72.1554 227.183 74.992 227.183 79.1825C227.183 87.8214 230.03 93.817 235.789 97.1049C237.536 98.1364 239.218 98.7811 240.835 99.1679C242.453 99.5547 244.071 99.8126 245.753 100.006V103.81C249.376 104.583 253.388 104.583 255.652 104.712V94.4617C254.035 94.2683 252.352 94.0104 250.735 93.6236C249.053 93.2368 247.37 92.5921 245.688 91.5606Z" fill="url(#paint13_linear_3035_69651)"/>
<path d="M240.771 99.1671C239.154 98.7803 237.471 98.0712 235.724 97.1041C230.03 93.8162 227.119 87.8206 227.119 79.1817C227.119 74.9912 227.831 72.1546 229.254 70.6073C230.677 69.0601 232.619 68.9956 235.142 70.4784C235.789 70.8652 236.501 71.3165 237.083 71.7678C237.989 72.4125 238.895 73.1861 239.801 73.9597C241.224 75.3136 242.712 76.7964 244.136 78.4081L246.983 71.6388L247.371 70.7363C243.489 66.4169 239.477 63 235.271 60.5502C231.389 58.2938 228.025 57.3267 225.178 57.5846C224.207 57.6491 223.237 57.9069 222.396 58.2938C220.843 59.0029 219.549 60.2278 218.578 61.904C217.025 64.5473 216.313 68.222 216.313 72.8638C216.313 80.2777 217.866 86.918 221.037 92.6558C224.207 98.3935 228.736 102.971 234.624 106.388C238.765 108.773 242.453 110.062 245.689 110.32V103.873V100.07C244.071 99.8763 242.389 99.5539 240.771 99.1671Z" fill="#F0F0FC"/>
<path d="M247.371 70.7367L257.27 65.1924L254.035 72.8642L244.136 78.4085L247.371 70.7367Z" fill="url(#paint14_linear_3035_69651)"/>
<path d="M245.688 100.006L255.588 94.4614V104.712L245.688 110.256V100.006Z" fill="url(#paint15_linear_3035_69651)"/>
<path d="M264.451 87.0472L262.381 85.8223V96.0729L264.387 97.2333C268.075 99.3608 269.951 98.5871 269.951 94.7835C269.886 91.7534 268.075 89.1747 264.451 87.0472Z" fill="url(#paint16_linear_3035_69651)"/>
<path d="M262.381 105.228V121.603L269.304 117.606L265.034 106.775L262.381 105.228Z" fill="url(#paint17_linear_3035_69651)"/>
<path d="M295.444 129.017L284.38 103.681L287.615 101.811V101.746C289.621 100.457 290.656 98.1362 290.656 94.5904C290.656 89.1105 288.586 84.2109 284.509 79.7625C283.409 78.5376 282.18 77.3772 280.821 76.2812C279.01 74.7984 277.004 73.4445 274.739 72.0907L261.928 64.6768L251.834 70.5434L261.993 76.4101L264.646 77.9574C267.169 79.4402 269.369 80.9874 271.245 82.5992C272.475 83.6307 273.575 84.6622 274.61 85.7581C274.739 85.8871 274.804 86.016 274.933 86.145C275.58 86.9186 276.227 87.6922 276.745 88.4658C276.81 88.5303 276.81 88.5948 276.874 88.6593C277.457 89.4974 277.974 90.3999 278.427 91.238C278.492 91.4314 278.557 91.6248 278.686 91.8182C278.751 92.0116 278.88 92.205 278.945 92.4629L276.486 108.064C275.904 108.258 275.257 108.451 274.545 108.58C274.351 108.58 274.157 108.709 273.963 108.709L274.028 108.838L285.35 134.884L295.444 129.017Z" fill="url(#paint18_linear_3035_69651)"/>
<path d="M280.563 100.457C280.563 99.3606 280.499 98.3291 280.304 97.2332C280.24 96.6529 280.046 96.0727 279.916 95.428C279.787 94.9767 279.722 94.5899 279.593 94.1386C279.334 93.365 279.01 92.5914 278.622 91.8178C278.557 91.6243 278.493 91.4309 278.363 91.2375C277.91 90.335 277.393 89.4969 276.81 88.6588C276.746 88.5943 276.746 88.5298 276.681 88.4654C276.034 87.5628 275.322 86.6602 274.546 85.7577C272.022 82.921 268.723 80.3423 264.582 77.9569L261.929 76.4097L251.771 70.543V115.478L262.317 121.602V105.227L264.97 106.775L269.176 117.541L273.252 127.92L285.222 134.819L273.964 108.709C278.363 108.386 280.563 105.679 280.563 100.457ZM264.388 97.2332L262.382 96.0727V85.8221L264.452 87.0471C268.076 89.1101 269.887 91.7533 269.887 94.8478C269.887 98.587 268.076 99.4251 264.388 97.2332Z" fill="url(#paint19_linear_3035_69651)"/>
<path d="M321.908 132.885C321.908 131.66 322.037 128.63 322.296 123.924L322.037 123.795L314.144 151.517L321.843 147.068V136.302C321.843 135.27 321.843 134.11 321.908 132.885Z" fill="url(#paint20_linear_3035_69651)"/>
<path d="M295.833 108.58C296.221 114.318 296.415 141.266 296.415 141.266L302.368 137.656L296.092 108.709L295.833 108.58Z" fill="url(#paint21_linear_3035_69651)"/>
<path d="M324.561 112.642L317.508 108.58L315.826 114.253L309.485 135.85L309.291 135.722L301.138 99.1031L295.574 95.8796L287.033 90.98V135.915L296.415 141.33C296.415 141.33 296.221 114.382 295.833 108.645L296.092 108.773L302.368 137.72L304.115 145.779L314.144 151.581L322.037 123.859L322.296 123.988C322.102 128.759 321.973 131.724 321.908 132.949C321.908 134.174 321.843 135.335 321.843 136.366V146.939V155.965L331.549 161.574V116.639L324.561 112.642Z" fill="#F0F0FC"/>
<path d="M311.103 92.9785L296.997 85.1133L287.033 90.9155L295.509 95.8796L301.074 99.0386L309.226 135.657L309.485 135.786L315.826 114.189L311.103 92.9785Z" fill="url(#paint22_linear_3035_69651)"/>
<path d="M327.472 102.778H327.408L317.443 108.516L331.484 116.703L331.549 116.639V116.703V161.574L341.513 155.836V110.836L327.472 102.778Z" fill="url(#paint23_linear_3035_69651)"/>
<path d="M313.432 80.085C313.368 81.1809 313.821 82.2769 314.92 82.9216L346.754 101.489C349.148 102.907 352.189 102.907 354.583 101.553L374.576 90.2711C375.547 89.6909 376 88.7238 376 87.7568V93.9458C375.935 94.8484 375.482 95.7509 374.576 96.2667L354.583 107.549C352.125 108.903 349.148 108.903 346.754 107.484L314.92 88.9172C313.95 88.337 313.432 87.3055 313.432 86.3385C313.432 86.274 313.432 80.085 313.432 80.085Z" fill="url(#paint24_linear_3035_69651)"/>
<path d="M374.576 90.2708L354.583 101.553C352.125 102.907 349.148 102.907 346.754 101.488L314.92 82.9214C313.821 82.2767 313.368 81.1807 313.432 80.0847C313.497 79.1822 314.015 78.2796 314.92 77.7638C320.938 74.2825 329.802 69.1894 335.172 66.0305C336.984 64.999 339.249 64.999 341.06 66.0305C360.018 76.9902 369.788 82.6635 374.641 85.4357C375.547 85.9514 376 86.7895 376 87.6921C376 88.7236 375.547 89.7551 374.576 90.2708Z" fill="url(#paint25_linear_3035_69651)"/>
<path d="M340.537 74.8567L355.756 83.9351L358.776 83.1673C359.005 83.0101 359.553 83.0686 359.972 83.4315L364.015 85.8628C364.549 86.1471 364.637 86.52 364.178 86.8344C363.833 87.0703 363.171 87.0904 362.637 86.8061L359.128 84.659L342.433 89.3725C341.987 89.4612 341.555 89.3241 341.122 89.1869L339.966 88.2455C340.142 88.9913 339.224 89.6202 337.899 89.6604C336.689 89.622 335.52 88.9063 335.242 88.0133C335.066 87.2674 335.984 86.6386 337.309 86.5984L334.436 84.8827C334.612 85.6286 333.693 86.2574 332.369 86.2976C331.159 86.2592 329.989 85.5435 329.712 84.6505C329.536 83.9046 330.454 83.2758 331.779 83.2356L331.245 82.9513C330.71 82.6671 330.737 82.2155 331.082 81.9797C331.426 81.7439 332.088 81.7238 332.622 82.0081L341.979 87.7336L345.229 86.8087L334.27 80.2303C333.317 79.5831 332.924 78.7687 333.41 78.0028L336.246 74.7616C337.063 73.9856 339.165 73.8467 340.537 74.8567Z" fill="white"/>
<path opacity="0.43" d="M332.588 204.668L325.535 200.606H302.048L318.871 210.406H325.794L332.588 206.473C333.3 206.086 333.3 205.055 332.588 204.668Z" fill="#0C25BA"/>
<path d="M319.129 208.601C319 208.601 318.935 208.536 318.871 208.536C318.806 208.536 318.741 208.472 318.677 208.472L301.595 198.608C301.336 198.479 301.271 198.286 301.271 198.092V200.22C301.271 200.413 301.401 200.607 301.66 200.736L318.677 210.599C318.935 210.728 319.324 210.857 319.647 210.793V208.665C319.453 208.601 319.324 208.601 319.129 208.601Z" fill="#DCDCF9"/>
<path d="M327.994 204.088L320.682 208.278C320.617 208.343 320.553 208.343 320.423 208.407C320.423 208.407 320.423 208.407 320.359 208.407C320.294 208.407 320.229 208.472 320.165 208.472C319.97 208.536 319.776 208.536 319.647 208.536V210.664C319.97 210.664 320.229 210.599 320.488 210.47L328.058 206.087C328.317 205.958 328.447 205.764 328.447 205.571V203.572C328.382 203.766 328.252 203.959 327.994 204.088Z" fill="#C0C0F9"/>
<path d="M326.699 203.895L320.553 207.441C320.164 207.634 319.582 207.699 319.259 207.505L312.4 203.508C313.371 203.573 314.471 203.379 315.571 203.057L314.924 202.67C313.694 202.992 312.4 202.992 311.688 202.541C310.977 202.09 310.912 201.381 311.494 200.671L310.912 200.349C310.265 200.994 310.006 201.639 310.071 202.219L303.212 198.286C302.889 198.093 302.954 197.77 303.277 197.577L304.636 196.803L303.73 196.288L301.659 197.448C301.336 197.641 301.207 197.835 301.207 198.093C301.207 198.286 301.271 198.48 301.53 198.608L318.676 208.408C318.741 208.472 318.806 208.472 318.87 208.472C318.935 208.472 319 208.537 319.064 208.537C319.064 208.537 319.065 208.537 319.129 208.537C319.259 208.601 319.453 208.601 319.647 208.601C319.841 208.601 320.035 208.537 320.164 208.537C320.229 208.537 320.294 208.472 320.423 208.472C320.423 208.472 320.423 208.472 320.488 208.472C320.553 208.408 320.617 208.408 320.747 208.343L328.058 204.153C328.317 204.024 328.446 203.83 328.511 203.637C328.576 203.379 328.511 203.186 328.188 202.992L327.67 202.735L326.829 203.186C327.152 203.379 327.088 203.702 326.699 203.895Z" fill="white"/>
<path d="M303.343 197.512C302.955 197.706 302.955 198.028 303.278 198.222L310.137 202.154C310.072 201.574 310.331 200.929 310.978 200.285L304.766 196.674L303.343 197.512ZM305.09 198.286C304.831 198.479 304.313 198.479 304.055 198.286C303.796 198.093 303.796 197.835 304.055 197.706C304.313 197.512 304.831 197.512 305.09 197.706C305.349 197.835 305.349 198.093 305.09 198.286Z" fill="#F0F0FC"/>
<path d="M320.424 203.701C320.489 203.766 320.553 203.766 320.618 203.766C320.553 203.766 320.489 203.701 320.424 203.701Z" fill="#3CB779"/>
<path d="M315.571 203.057C314.471 203.443 313.306 203.572 312.4 203.508L319.259 207.505C319.582 207.698 320.165 207.698 320.553 207.441L326.7 203.895C327.088 203.701 327.088 203.379 326.829 203.186L326.182 203.572C326.117 203.637 326.117 203.701 325.988 203.766C325.923 203.83 325.794 203.83 325.664 203.895L322.171 205.893C321.912 206.022 321.653 206.087 321.329 206.087C321.006 206.087 320.618 206.022 320.359 205.893L315.571 203.057ZM320.165 207.054C319.906 207.247 319.388 207.247 319.129 207.054C318.871 206.86 318.871 206.602 319.129 206.473C319.388 206.28 319.906 206.28 320.165 206.473C320.424 206.667 320.424 206.925 320.165 207.054Z" fill="#F0F0FC"/>
<path d="M311.689 202.54C312.401 202.991 313.63 202.991 314.924 202.669L311.495 200.671C310.977 201.38 310.977 202.153 311.689 202.54Z" fill="#F0F0FC"/>
<path d="M326.182 203.507L325.664 203.765C325.793 203.765 325.858 203.701 325.988 203.636C326.117 203.636 326.182 203.572 326.182 203.507Z" fill="white"/>
<path d="M304.053 197.705C303.795 197.898 303.795 198.156 304.053 198.285C304.312 198.478 304.83 198.478 305.089 198.285C305.348 198.092 305.348 197.834 305.089 197.705C304.765 197.512 304.312 197.512 304.053 197.705Z" fill="white"/>
<path d="M320.165 206.474C319.906 206.28 319.388 206.28 319.13 206.474C318.871 206.667 318.871 206.925 319.13 207.054C319.388 207.247 319.906 207.247 320.165 207.054C320.424 206.925 320.424 206.667 320.165 206.474Z" fill="white"/>
<path d="M310.913 200.349L311.495 200.671L314.924 202.67L315.571 203.056L320.359 205.829C320.618 205.957 321.006 206.086 321.33 206.022V203.894C321.136 203.894 321.006 203.894 320.812 203.83C320.812 203.83 320.812 203.83 320.747 203.83C320.683 203.83 320.618 203.83 320.553 203.766C320.489 203.766 320.424 203.701 320.359 203.701L318.936 202.863H318.871C318.612 202.992 318.353 203.056 318.03 203.056V200.929C317.836 200.929 317.706 200.929 317.512 200.864C317.512 200.864 317.512 200.864 317.448 200.864C317.383 200.864 317.318 200.864 317.253 200.8C317.189 200.8 317.124 200.735 317.059 200.735L299.978 190.872C299.719 190.743 299.654 190.549 299.654 190.356V192.483C299.654 192.677 299.784 192.87 300.043 192.999L302.889 194.675V195.385C302.889 195.578 303.019 195.771 303.278 195.9L303.731 196.158L304.636 196.674L310.913 200.349Z" fill="#DCDCF9"/>
<path d="M329.676 199.381L322.365 203.572C322.3 203.636 322.236 203.636 322.106 203.701C322.042 203.701 321.977 203.765 321.912 203.765C321.718 203.83 321.524 203.83 321.395 203.83V205.957C321.718 205.957 321.977 205.893 322.236 205.764L325.73 203.765L326.247 203.507L326.894 203.121L327.735 202.669L329.871 201.444C330.129 201.316 330.259 201.122 330.259 200.929V198.93C330.129 199.059 329.935 199.253 329.676 199.381Z" fill="#C0C0F9"/>
<path d="M329.805 198.222L326.894 196.545V197.512L328.511 198.415C328.835 198.608 328.77 198.931 328.447 199.124L322.3 202.67C321.912 202.863 321.329 202.928 321.006 202.734L320.1 202.219L319 202.863L320.423 203.701C320.488 203.766 320.553 203.766 320.618 203.766C320.682 203.766 320.747 203.83 320.812 203.83C320.812 203.83 320.812 203.83 320.876 203.83C321.006 203.895 321.2 203.895 321.394 203.895C321.588 203.895 321.782 203.83 321.912 203.83C321.976 203.83 322.041 203.766 322.17 203.766C322.235 203.701 322.3 203.701 322.429 203.637L329.676 199.382C329.935 199.253 330.064 199.06 330.129 198.866C330.194 198.673 330.129 198.415 329.805 198.222Z" fill="white"/>
<path d="M326.894 197.963C326.894 198.092 326.829 198.221 326.764 198.285C327.023 198.156 327.412 198.156 327.67 198.35C327.929 198.543 327.929 198.801 327.67 198.93C327.412 199.123 326.894 199.123 326.635 198.93C326.441 198.801 326.376 198.672 326.441 198.479L321.071 201.573C321.329 201.509 321.588 201.573 321.782 201.702C322.041 201.896 322.041 202.154 321.782 202.282C321.524 202.476 321.006 202.476 320.747 202.282C320.553 202.154 320.488 202.025 320.553 201.831L319.971 202.153L320.877 202.669C321.2 202.863 321.782 202.863 322.171 202.605L328.317 199.059C328.706 198.866 328.706 198.543 328.382 198.35L326.764 197.447L326.894 197.963Z" fill="#F0F0FC"/>
<path d="M326.7 198.995C326.959 199.188 327.477 199.188 327.735 198.995C327.994 198.801 327.994 198.543 327.735 198.414C327.477 198.286 327.088 198.221 326.83 198.35C326.765 198.414 326.7 198.479 326.571 198.543C326.441 198.672 326.506 198.866 326.7 198.995Z" fill="white"/>
<path d="M320.877 202.347C321.135 202.54 321.653 202.54 321.912 202.347C322.171 202.154 322.171 201.896 321.912 201.767C321.718 201.638 321.459 201.638 321.2 201.638L320.747 201.896C320.618 202.089 320.618 202.218 320.877 202.347Z" fill="white"/>
<path d="M326.441 196.481L319.13 200.672C319.065 200.736 319 200.736 318.871 200.801C318.871 200.801 318.871 200.801 318.806 200.801C318.741 200.801 318.677 200.865 318.612 200.865C318.418 200.929 318.224 200.929 318.094 200.929V203.057C318.418 203.057 318.677 202.992 318.935 202.864H319L320.1 202.219L320.682 201.896L321.135 201.639L326.506 198.544C326.635 198.48 326.7 198.415 326.764 198.351C326.829 198.222 326.894 198.157 326.894 198.028V197.513V196.546V195.965C326.894 196.159 326.7 196.352 326.441 196.481Z" fill="#C0C0F9"/>
<path d="M300.107 190.872L317.188 200.736C317.253 200.8 317.318 200.8 317.383 200.8C317.447 200.8 317.512 200.865 317.577 200.865C317.577 200.865 317.577 200.865 317.641 200.865C317.771 200.929 317.965 200.929 318.159 200.929C318.353 200.929 318.547 200.865 318.677 200.865C318.741 200.865 318.806 200.8 318.935 200.8C318.935 200.8 318.935 200.8 319 200.8C319.065 200.736 319.13 200.736 319.259 200.671L326.57 196.481C326.829 196.352 326.959 196.158 327.023 195.965C327.088 195.707 327.023 195.514 326.7 195.32L309.618 185.457C309.101 185.134 308.195 185.199 307.612 185.521L300.301 189.712C299.978 189.905 299.848 190.098 299.848 190.356C299.719 190.55 299.848 190.743 300.107 190.872ZM316.412 191.259C317.512 191.903 316.994 193.193 315.312 194.224C313.565 195.191 311.301 195.514 310.201 194.869C309.101 194.224 309.618 192.935 311.3 191.903C313.047 190.936 315.312 190.679 316.412 191.259ZM325.212 196.223L319.065 199.769C318.677 199.962 318.094 200.027 317.771 199.833L310.912 195.836C312.4 195.901 314.342 195.449 315.959 194.547C317.771 193.515 318.547 192.161 318.094 191.259L325.341 195.449C325.6 195.707 325.535 196.029 325.212 196.223ZM301.789 189.84L307.936 186.295C308.324 186.101 308.907 186.037 309.23 186.23L316.477 190.421C314.924 190.098 312.659 190.614 310.848 191.646C309.295 192.548 308.454 193.709 308.583 194.547L301.724 190.614C301.401 190.421 301.466 190.034 301.789 189.84Z" fill="white"/>
<path d="M301.725 190.549L308.583 194.482C308.454 193.644 309.23 192.483 310.848 191.581C312.66 190.549 314.924 190.098 316.477 190.356L309.23 186.165C308.907 185.972 308.325 185.972 307.936 186.23L301.79 189.775C301.466 190.033 301.401 190.42 301.725 190.549ZM308.195 186.745C308.454 186.552 308.972 186.552 309.23 186.745C309.489 186.939 309.489 187.197 309.23 187.326C308.972 187.519 308.454 187.519 308.195 187.326C307.936 187.197 307.936 186.939 308.195 186.745ZM302.501 190.033C302.76 189.84 303.278 189.84 303.537 190.033C303.795 190.227 303.795 190.485 303.537 190.614C303.278 190.807 302.76 190.807 302.501 190.614C302.243 190.485 302.243 190.162 302.501 190.033Z" fill="#F0F0FC"/>
<path d="M315.894 194.547C314.342 195.449 312.401 195.901 310.848 195.836L317.706 199.833C318.03 200.027 318.612 200.027 319 199.769L325.147 196.223C325.535 196.029 325.535 195.707 325.212 195.514L317.965 191.323C318.483 192.226 317.706 193.515 315.894 194.547ZM318.612 199.446C318.353 199.64 317.836 199.64 317.577 199.446C317.318 199.253 317.318 198.995 317.577 198.866C317.836 198.737 318.353 198.673 318.612 198.866C318.935 198.995 318.935 199.253 318.612 199.446ZM323.465 196.029C323.206 195.836 323.206 195.578 323.465 195.449C323.723 195.256 324.241 195.256 324.5 195.449C324.759 195.643 324.759 195.901 324.5 196.029C324.176 196.223 323.723 196.223 323.465 196.029Z" fill="#F0F0FC"/>
<path d="M310.2 194.869C311.3 195.513 313.63 195.191 315.312 194.224C317.059 193.257 317.512 191.903 316.412 191.258C315.312 190.614 312.982 190.936 311.3 191.903C309.618 192.934 309.1 194.288 310.2 194.869Z" fill="#F0F0FC"/>
<path d="M308.195 187.326C308.454 187.519 308.972 187.519 309.23 187.326C309.489 187.132 309.489 186.874 309.23 186.746C308.972 186.552 308.454 186.552 308.195 186.746C307.936 186.939 307.936 187.197 308.195 187.326Z" fill="white"/>
<path d="M324.5 195.449C324.241 195.256 323.723 195.256 323.465 195.449C323.206 195.643 323.206 195.9 323.465 196.029C323.723 196.223 324.241 196.223 324.5 196.029C324.759 195.9 324.759 195.643 324.5 195.449Z" fill="white"/>
<path d="M302.501 190.614C302.76 190.807 303.278 190.807 303.536 190.614C303.795 190.42 303.795 190.163 303.536 190.034C303.278 189.84 302.76 189.84 302.501 190.034C302.242 190.163 302.242 190.485 302.501 190.614Z" fill="white"/>
<path d="M318.612 198.866C318.353 198.672 317.836 198.672 317.577 198.866C317.318 199.059 317.318 199.317 317.577 199.446C317.836 199.639 318.353 199.639 318.612 199.446C318.936 199.252 318.936 198.995 318.612 198.866Z" fill="#319A60"/>
<path d="M313.047 189.711C312.53 189.389 311.753 189.26 311.042 189.324C310.653 189.389 310.201 189.518 309.877 189.646C309.424 189.904 309.23 190.227 309.23 190.549C309.23 190.871 309.424 191.193 309.877 191.451C310.201 191.644 310.589 191.773 311.042 191.773C311.753 191.838 312.53 191.709 313.047 191.451C313.436 191.193 313.694 190.871 313.694 190.549C313.694 190.291 313.5 189.969 313.047 189.711Z" fill="#FFD33F"/>
<path d="M312.336 188.293C311.818 187.971 311.042 187.842 310.33 187.906C309.942 187.971 309.489 188.1 309.166 188.228C308.713 188.486 308.519 188.809 308.519 189.131C308.519 189.453 308.713 189.775 309.166 190.033C309.489 190.226 309.877 190.355 310.33 190.355C311.042 190.42 311.818 190.291 312.336 190.033C312.724 189.775 312.983 189.453 312.983 189.131C312.983 188.873 312.789 188.551 312.336 188.293Z" fill="#FFD33F"/>
<path d="M313.048 191.516C312.53 191.839 311.754 191.967 311.042 191.839C310.654 191.774 310.201 191.645 309.877 191.516C309.619 191.323 309.424 191.129 309.295 190.936C309.619 191.065 309.942 191.194 310.33 191.194C311.042 191.258 311.754 191.129 312.336 190.871C312.724 190.614 312.983 190.291 312.983 190.033V189.969V189.195C312.983 189.518 312.789 189.84 312.336 190.098C311.818 190.42 311.042 190.549 310.33 190.42C309.942 190.356 309.489 190.227 309.166 190.098C308.713 189.84 308.519 189.518 308.519 189.195C308.519 189.453 308.519 190.033 308.519 190.033C308.519 190.356 308.777 190.678 309.166 190.871C309.166 190.871 309.166 190.871 309.23 190.871C309.23 191.129 309.23 191.452 309.23 191.452C309.23 191.774 309.489 192.096 309.877 192.29C310.201 192.483 310.589 192.612 311.042 192.612C311.754 192.677 312.465 192.548 313.048 192.29C313.436 192.032 313.695 191.71 313.695 191.452V191.387V190.614C313.695 191 313.436 191.258 313.048 191.516Z" fill="url(#paint26_linear_3035_69651)"/>
<path d="M320.23 198.608C319.712 198.93 318.936 199.059 318.224 198.93C317.836 198.866 317.383 198.737 317.059 198.608C316.606 198.35 316.412 198.028 316.412 197.706C316.412 197.963 316.412 198.543 316.412 198.543C316.412 198.866 316.671 199.188 317.059 199.381C317.383 199.575 317.771 199.704 318.224 199.704C318.936 199.768 319.647 199.639 320.23 199.381C320.618 199.123 320.877 198.801 320.877 198.543V198.479V197.706C320.877 198.028 320.683 198.35 320.23 198.608Z" fill="url(#paint27_linear_3035_69651)"/>
<path d="M320.23 196.803C319.712 196.48 318.936 196.352 318.224 196.416C317.836 196.48 317.383 196.609 317.059 196.738C316.606 196.996 316.412 197.318 316.412 197.641C316.412 197.963 316.606 198.285 317.059 198.543C317.383 198.736 317.771 198.865 318.224 198.865C318.936 198.93 319.712 198.801 320.23 198.543C320.618 198.285 320.877 197.963 320.877 197.641C320.877 197.383 320.683 197.061 320.23 196.803Z" fill="#FFD33F"/>
</g>
<defs>
<filter id="filter0_d_3035_69651" x="-61.7993" y="-304.587" width="714.188" height="656.606" filterUnits="userSpaceOnUse" color-interpolation-filters="sRGB">
<feFlood flood-opacity="0" result="BackgroundImageFix"/>
<feColorMatrix in="SourceAlpha" type="matrix" values="0 0 0 0 0 0 0 0 0 0 0 0 0 0 0 0 0 0 127 0" result="hardAlpha"/>
<feOffset dx="4" dy="4"/>
<feGaussianBlur stdDeviation="12"/>
<feComposite in2="hardAlpha" operator="out"/>
<feColorMatrix type="matrix" values="0 0 0 0 0.298039 0 0 0 0 0.392157 0 0 0 0 0.937255 0 0 0 0.2 0"/>
<feBlend mode="normal" in2="BackgroundImageFix" result="effect1_dropShadow_3035_69651"/>
<feBlend mode="normal" in="SourceGraphic" in2="effect1_dropShadow_3035_69651" result="shape"/>
</filter>
<linearGradient id="paint0_linear_3035_69651" x1="-26" y1="-23" x2="360.729" y2="420.082" gradientUnits="userSpaceOnUse">
<stop stop-color="#73ABFF"/>
<stop offset="1" stop-color="#373FE7"/>
</linearGradient>
<linearGradient id="paint1_linear_3035_69651" x1="167.779" y1="201.314" x2="233.092" y2="201.314" gradientUnits="userSpaceOnUse">
<stop offset="0.4649" stop-color="#EAEAF9"/>
<stop offset="0.5083" stop-color="#E3E3F7"/>
<stop offset="0.5703" stop-color="#D0D0F2"/>
<stop offset="0.6162" stop-color="#BEBEED"/>
</linearGradient>
<linearGradient id="paint2_linear_3035_69651" x1="254.901" y1="192.555" x2="201.08" y2="161.368" gradientUnits="userSpaceOnUse">
<stop offset="0.373" stop-color="#BEBEED"/>
<stop offset="0.5405" stop-color="#EAEAF9"/>
</linearGradient>
<linearGradient id="paint3_linear_3035_69651" x1="222.736" y1="171.81" x2="230.821" y2="171.81" gradientUnits="userSpaceOnUse">
<stop stop-color="#FFD33F"/>
<stop offset="1" stop-color="#FF7364"/>
</linearGradient>
<linearGradient id="paint4_linear_3035_69651" x1="236.969" y1="209.45" x2="281.278" y2="209.45" gradientUnits="userSpaceOnUse">
<stop offset="0.427" stop-color="#EAEAF9"/>
<stop offset="0.4844" stop-color="#E3E3F7"/>
<stop offset="0.5663" stop-color="#D0D0F2"/>
<stop offset="0.627" stop-color="#BEBEED"/>
</linearGradient>
<linearGradient id="paint5_linear_3035_69651" x1="277.102" y1="201.124" x2="262.03" y2="201.124" gradientUnits="userSpaceOnUse">
<stop stop-color="#FFD33F"/>
<stop offset="1" stop-color="#FF7364"/>
</linearGradient>
<linearGradient id="paint6_linear_3035_69651" x1="116.605" y1="126.448" x2="161.185" y2="126.448" gradientUnits="userSpaceOnUse">
<stop offset="0.2919" stop-color="#EAEAF9"/>
<stop offset="0.388" stop-color="#E3E3F7"/>
<stop offset="0.5253" stop-color="#D0D0F2"/>
<stop offset="0.627" stop-color="#BEBEED"/>
</linearGradient>
<linearGradient id="paint7_linear_3035_69651" x1="184.077" y1="138.625" x2="178.352" y2="141.857" gradientUnits="userSpaceOnUse">
<stop stop-color="#EAEAF9"/>
<stop offset="1" stop-color="#BEBEED"/>
</linearGradient>
<linearGradient id="paint8_linear_3035_69651" x1="349.958" y1="111.286" x2="151.823" y2="111.286" gradientUnits="userSpaceOnUse">
<stop offset="0.4764" stop-color="#EAEAF9"/>
<stop offset="0.4903" stop-color="#E3E5F8"/>
<stop offset="0.5103" stop-color="#D0D5F4"/>
<stop offset="0.5338" stop-color="#B1BDEE"/>
<stop offset="0.5599" stop-color="#879AE5"/>
<stop offset="0.5737" stop-color="#6D86E0"/>
</linearGradient>
<linearGradient id="paint9_linear_3035_69651" x1="262.432" y1="147.909" x2="288.611" y2="162.755" gradientUnits="userSpaceOnUse">
<stop stop-color="#FFD33F"/>
<stop offset="1" stop-color="#FFB64A"/>
</linearGradient>
<linearGradient id="paint10_linear_3035_69651" x1="233.475" y1="125.407" x2="231.644" y2="115.86" gradientUnits="userSpaceOnUse">
<stop stop-color="#FFD33F"/>
<stop offset="1" stop-color="#FF7364"/>
</linearGradient>
<linearGradient id="paint11_linear_3035_69651" x1="227.172" y1="143.27" x2="246.567" y2="143.27" gradientUnits="userSpaceOnUse">
<stop stop-color="#FFD33F"/>
<stop offset="1" stop-color="#FF7364"/>
</linearGradient>
<linearGradient id="paint12_linear_3035_69651" x1="237.507" y1="57.673" x2="251.682" y2="82.314" gradientUnits="userSpaceOnUse">
<stop offset="0.064661" stop-color="#EAEAF9"/>
<stop offset="0.2431" stop-color="#DFDFF6"/>
<stop offset="0.7113" stop-color="#C7C7EF"/>
<stop offset="1" stop-color="#BEBEED"/>
</linearGradient>
<linearGradient id="paint13_linear_3035_69651" x1="248.124" y1="100.167" x2="226.531" y2="71.0753" gradientUnits="userSpaceOnUse">
<stop stop-color="#EAEAF9"/>
<stop offset="0.4574" stop-color="#D8D8F4"/>
<stop offset="1" stop-color="#BEBEED"/>
</linearGradient>
<linearGradient id="paint14_linear_3035_69651" x1="240.212" y1="71.8123" x2="253.351" y2="71.8123" gradientUnits="userSpaceOnUse">
<stop stop-color="#EAEAF9"/>
<stop offset="0.5568" stop-color="#BEBEED"/>
</linearGradient>
<linearGradient id="paint15_linear_3035_69651" x1="250.633" y1="88.5259" x2="250.633" y2="104.339" gradientUnits="userSpaceOnUse">
<stop stop-color="#EAEAF9"/>
<stop offset="0.5568" stop-color="#BEBEED"/>
</linearGradient>
<linearGradient id="paint16_linear_3035_69651" x1="260.844" y1="89.7736" x2="272.954" y2="94.718" gradientUnits="userSpaceOnUse">
<stop stop-color="#FF7364"/>
<stop offset="1" stop-color="#A36305"/>
</linearGradient>
<linearGradient id="paint17_linear_3035_69651" x1="260.976" y1="110.373" x2="272.915" y2="113.797" gradientUnits="userSpaceOnUse">
<stop stop-color="#FF7364"/>
<stop offset="1" stop-color="#A36305"/>
</linearGradient>
<linearGradient id="paint18_linear_3035_69651" x1="242.635" y1="99.7763" x2="282.907" y2="99.7763" gradientUnits="userSpaceOnUse">
<stop stop-color="#FFD33F"/>
<stop offset="1" stop-color="#FF7364"/>
</linearGradient>
<linearGradient id="paint19_linear_3035_69651" x1="253.297" y1="82.7417" x2="289.774" y2="157.237" gradientUnits="userSpaceOnUse">
<stop stop-color="#FFD33F"/>
<stop offset="1" stop-color="#FF7364"/>
</linearGradient>
<linearGradient id="paint20_linear_3035_69651" x1="318.179" y1="152.336" x2="318.179" y2="133.506" gradientUnits="userSpaceOnUse">
<stop stop-color="#EAEAF9"/>
<stop offset="1" stop-color="#BEBEED"/>
</linearGradient>
<linearGradient id="paint21_linear_3035_69651" x1="299.636" y1="144.109" x2="298.251" y2="121.356" gradientUnits="userSpaceOnUse">
<stop stop-color="#EAEAF9"/>
<stop offset="1" stop-color="#BEBEED"/>
</linearGradient>
<linearGradient id="paint22_linear_3035_69651" x1="290.895" y1="81.0876" x2="316.939" y2="126.361" gradientUnits="userSpaceOnUse">
<stop offset="0.3405" stop-color="#EAEAF9"/>
<stop offset="0.4324" stop-color="#BEBEED"/>
</linearGradient>
<linearGradient id="paint23_linear_3035_69651" x1="316.009" y1="100.778" x2="337.514" y2="138.16" gradientUnits="userSpaceOnUse">
<stop offset="0.4486" stop-color="#EAEAF9"/>
<stop offset="0.5568" stop-color="#BEBEED"/>
</linearGradient>
<linearGradient id="paint24_linear_3035_69651" x1="300.227" y1="94.319" x2="358.011" y2="94.319" gradientUnits="userSpaceOnUse">
<stop stop-color="#FFD33F"/>
<stop offset="1" stop-color="#FF7364"/>
</linearGradient>
<linearGradient id="paint25_linear_3035_69651" x1="325.102" y1="71.39" x2="364.44" y2="96.3777" gradientUnits="userSpaceOnUse">
<stop stop-color="#FFD33F"/>
<stop offset="1" stop-color="#FFB64A"/>
</linearGradient>
<linearGradient id="paint26_linear_3035_69651" x1="308.546" y1="190.951" x2="313.685" y2="190.951" gradientUnits="userSpaceOnUse">
<stop stop-color="#FFD33F"/>
<stop offset="1" stop-color="#FF7364"/>
</linearGradient>
<linearGradient id="paint27_linear_3035_69651" x1="316.448" y1="198.734" x2="320.888" y2="198.734" gradientUnits="userSpaceOnUse">
<stop stop-color="#FFD33F"/>
<stop offset="1" stop-color="#FF7364"/>
</linearGradient>
</defs>
</svg>
