<?xml version="1.0" encoding="UTF-8"?>
<svg xmlns="http://www.w3.org/2000/svg" xmlns:xlink="http://www.w3.org/1999/xlink" width="32pt" height="32pt" viewBox="0 0 32 32" version="1.1">
<g id="surface1">
<path style=" stroke:none;fill-rule:nonzero;fill:rgb(60.391235%,63.136292%,73.724365%);fill-opacity:1;" d="M 24.332031 12.167969 C 24.746094 12.167969 25.082031 11.832031 25.082031 11.417969 C 25.082031 11.003906 24.746094 10.667969 24.332031 10.667969 Z M 19.332031 10.667969 C 18.917969 10.667969 18.582031 11.003906 18.582031 11.417969 C 18.582031 11.832031 18.917969 12.167969 19.332031 12.167969 Z M 24.332031 10.667969 L 19.332031 10.667969 L 19.332031 12.167969 L 24.332031 12.167969 Z M 24.332031 10.667969 "/>
<path style=" stroke:none;fill-rule:nonzero;fill:rgb(60.391235%,63.136292%,73.724365%);fill-opacity:1;" d="M 11 12.167969 C 11.414063 12.167969 11.75 11.832031 11.75 11.417969 C 11.75 11.003906 11.414063 10.667969 11 10.667969 Z M 7.667969 10.667969 C 7.253906 10.667969 6.917969 11.003906 6.917969 11.417969 C 6.917969 11.832031 7.253906 12.167969 7.667969 12.167969 Z M 11 10.667969 L 7.667969 10.667969 L 7.667969 12.167969 L 11 12.167969 Z M 11 10.667969 "/>
<path style=" stroke:none;fill-rule:nonzero;fill:rgb(60.391235%,63.136292%,73.724365%);fill-opacity:1;" d="M 16.5 11.417969 C 16.5 12.613281 15.53125 13.582031 14.332031 13.582031 L 14.332031 15.082031 C 16.359375 15.082031 18 13.441406 18 11.417969 Z M 14.332031 13.582031 C 13.136719 13.582031 12.167969 12.613281 12.167969 11.417969 L 10.667969 11.417969 C 10.667969 13.441406 12.308594 15.082031 14.332031 15.082031 Z M 12.167969 11.417969 C 12.167969 10.21875 13.136719 9.25 14.332031 9.25 L 14.332031 7.75 C 12.308594 7.75 10.667969 9.390625 10.667969 11.417969 Z M 14.332031 9.25 C 15.53125 9.25 16.5 10.21875 16.5 11.417969 L 18 11.417969 C 18 9.390625 16.359375 7.75 14.332031 7.75 Z M 14.332031 9.25 "/>
<path style=" stroke:none;fill-rule:nonzero;fill:rgb(60.391235%,63.136292%,73.724365%);fill-opacity:1;" d="M 24.332031 21.332031 C 24.746094 21.332031 25.082031 20.996094 25.082031 20.582031 C 25.082031 20.167969 24.746094 19.832031 24.332031 19.832031 Z M 21 19.832031 C 20.585938 19.832031 20.25 20.167969 20.25 20.582031 C 20.25 20.996094 20.585938 21.332031 21 21.332031 Z M 24.332031 19.832031 L 21 19.832031 L 21 21.332031 L 24.332031 21.332031 Z M 24.332031 19.832031 "/>
<path style=" stroke:none;fill-rule:nonzero;fill:rgb(60.391235%,63.136292%,73.724365%);fill-opacity:1;" d="M 12.667969 21.332031 C 13.082031 21.332031 13.417969 20.996094 13.417969 20.582031 C 13.417969 20.167969 13.082031 19.832031 12.667969 19.832031 Z M 7.667969 19.832031 C 7.253906 19.832031 6.917969 20.167969 6.917969 20.582031 C 6.917969 20.996094 7.253906 21.332031 7.667969 21.332031 Z M 12.667969 19.832031 L 7.667969 19.832031 L 7.667969 21.332031 L 12.667969 21.332031 Z M 12.667969 19.832031 "/>
<path style=" stroke:none;fill-rule:nonzero;fill:rgb(60.391235%,63.136292%,73.724365%);fill-opacity:1;" d="M 19.832031 20.582031 C 19.832031 21.78125 18.863281 22.75 17.667969 22.75 L 17.667969 24.25 C 19.691406 24.25 21.332031 22.609375 21.332031 20.582031 Z M 17.667969 22.75 C 16.46875 22.75 15.5 21.78125 15.5 20.582031 L 14 20.582031 C 14 22.609375 15.640625 24.25 17.667969 24.25 Z M 15.5 20.582031 C 15.5 19.386719 16.46875 18.417969 17.667969 18.417969 L 17.667969 16.917969 C 15.640625 16.917969 14 18.558594 14 20.582031 Z M 17.667969 18.417969 C 18.863281 18.417969 19.832031 19.386719 19.832031 20.582031 L 21.332031 20.582031 C 21.332031 18.558594 19.691406 16.917969 17.667969 16.917969 Z M 17.667969 18.417969 "/>
</g>
</svg>
