<svg width="88" height="88" viewBox="0 0 88 88" fill="none" xmlns="http://www.w3.org/2000/svg">
<g filter="url(#filter0_dd_14253_23348)">
<circle cx="42" cy="40" r="34" fill="#4A6EF6"/>
<path d="M50.0009 32.0052C49.1875 32.0052 48.4409 31.5385 48.0675 30.8185L47.1075 28.8852C46.4942 27.6719 44.8942 26.6719 43.5342 26.6719H40.4809C39.1075 26.6719 37.5075 27.6719 36.8942 28.8852L35.9342 30.8185C35.5609 31.5385 34.8142 32.0052 34.0009 32.0052C31.1075 32.0052 28.8142 34.4452 29.0009 37.3252L29.6942 48.3385C29.8542 51.0852 31.3342 53.3385 35.0142 53.3385H48.9875C52.6675 53.3385 54.1342 51.0852 54.3075 48.3385L55.0009 37.3252C55.1875 34.4452 52.8942 32.0052 50.0009 32.0052ZM40.0009 33.6719H44.0009C44.5475 33.6719 45.0009 34.1252 45.0009 34.6719C45.0009 35.2185 44.5475 35.6719 44.0009 35.6719H40.0009C39.4542 35.6719 39.0009 35.2185 39.0009 34.6719C39.0009 34.1252 39.4542 33.6719 40.0009 33.6719ZM42.0009 48.1652C39.5209 48.1652 37.4942 46.1519 37.4942 43.6585C37.4942 41.1652 39.5075 39.1519 42.0009 39.1519C44.4942 39.1519 46.5075 41.1652 46.5075 43.6585C46.5075 46.1519 44.4809 48.1652 42.0009 48.1652Z" fill="white"/>
</g>
<defs>
<filter id="filter0_dd_14253_23348" x="0" y="0" width="88" height="88" filterUnits="userSpaceOnUse" color-interpolation-filters="sRGB">
<feFlood flood-opacity="0" result="BackgroundImageFix"/>
<feColorMatrix in="SourceAlpha" type="matrix" values="0 0 0 0 0 0 0 0 0 0 0 0 0 0 0 0 0 0 127 0" result="hardAlpha"/>
<feOffset dy="4"/>
<feGaussianBlur stdDeviation="2"/>
<feComposite in2="hardAlpha" operator="out"/>
<feColorMatrix type="matrix" values="0 0 0 0 0.0470588 0 0 0 0 0.101961 0 0 0 0 0.294118 0 0 0 0.15 0"/>
<feBlend mode="normal" in2="BackgroundImageFix" result="effect1_dropShadow_14253_23348"/>
<feColorMatrix in="SourceAlpha" type="matrix" values="0 0 0 0 0 0 0 0 0 0 0 0 0 0 0 0 0 0 127 0" result="hardAlpha"/>
<feOffset dx="2" dy="4"/>
<feGaussianBlur stdDeviation="5"/>
<feComposite in2="hardAlpha" operator="out"/>
<feColorMatrix type="matrix" values="0 0 0 0 0.0470588 0 0 0 0 0.101961 0 0 0 0 0.294118 0 0 0 0.1 0"/>
<feBlend mode="normal" in2="effect1_dropShadow_14253_23348" result="effect2_dropShadow_14253_23348"/>
<feBlend mode="normal" in="SourceGraphic" in2="effect2_dropShadow_14253_23348" result="shape"/>
</filter>
</defs>
</svg>
