<svg width="20" height="20" viewBox="0 0 20 20" fill="none" xmlns="http://www.w3.org/2000/svg">
<path d="M10 0C4.49 0 0 4.49 0 10C0 15.51 4.49 20 10 20C15.51 20 20 15.51 20 10C20 4.49 15.51 0 10 0Z" fill="#45D39D"/>
<path d="M15.3351 7.42588L9.00658 13.7544C8.85032 13.9107 8.63825 14 8.41502 14C8.19179 14 7.97972 13.9107 7.82346 13.7544L4.66476 10.5957C4.34108 10.2721 4.34108 9.73631 4.66476 9.41263C4.98844 9.08894 5.52419 9.08894 5.84788 9.41263L8.41502 11.9798L14.152 6.24276C14.4757 5.91908 15.0115 5.91908 15.3351 6.24276C15.6588 6.56645 15.6588 7.09104 15.3351 7.42588Z" fill="white"/>
</svg>
