<svg width="30" height="30" viewBox="0 0 30 30" fill="none" xmlns="http://www.w3.org/2000/svg">
<path fill-rule="evenodd" clip-rule="evenodd" d="M25.6001 13.3621C26.3126 14.1246 26.8501 15.0621 27.1751 16.1371C28.0001 18.8496 27.2501 21.6371 25.2126 23.4246C23.9126 24.6121 22.2126 25.2746 20.4376 25.2746H15.9345V18.1998L16.8345 19.0998C17.022 19.2873 17.2595 19.3748 17.497 19.3748C17.7345 19.3748 17.972 19.2873 18.1595 19.0998C18.522 18.7373 18.522 18.1373 18.1595 17.7748L15.6595 15.2748C15.6595 15.267 15.6547 15.2641 15.6481 15.26C15.644 15.2575 15.6393 15.2545 15.6345 15.2498C15.5595 15.1748 15.4595 15.0998 15.3595 15.0623H15.3345C15.2345 15.0248 15.1345 14.9998 15.0345 14.9998H14.9345C14.847 15.0123 14.772 15.0248 14.697 15.0498C14.6845 15.056 14.6689 15.0623 14.6532 15.0685C14.6376 15.0748 14.622 15.081 14.6095 15.0873C14.5095 15.1373 14.422 15.1998 14.3345 15.2748L11.8345 17.7748C11.472 18.1373 11.472 18.7373 11.8345 19.0998C12.197 19.4623 12.797 19.4623 13.1595 19.0998L14.0595 18.1998V25.2746H7.46262C4.03762 25.0246 2.50012 22.3871 2.50012 20.0371C2.50012 19.9121 2.50012 19.7871 2.51262 19.6496C2.65012 17.6621 3.88762 15.5746 6.38762 14.9621C5.65012 12.0496 6.27512 9.31208 8.17512 7.32458C10.3376 5.06208 13.7876 4.16208 16.7626 5.08708C19.5001 5.92458 21.4251 8.17458 22.1126 11.2996C23.4751 11.6121 24.6876 12.3246 25.6001 13.3621Z" fill="white"/>
</svg>
