<svg width="28" height="28" viewBox="0 0 28 28" fill="none" xmlns="http://www.w3.org/2000/svg">
<path d="M12.8334 18.842V21.992C12.8334 24.617 11.7834 25.667 9.15837 25.667H6.00837C3.38337 25.667 2.33337 24.617 2.33337 21.992V18.842C2.33337 16.217 3.38337 15.167 6.00837 15.167H9.15837C11.7834 15.167 12.8334 16.217 12.8334 18.842Z" stroke="#041557" stroke-width="1.5" stroke-linecap="round" stroke-linejoin="round"/>
<path d="M25.6667 17.5C25.6667 22.015 22.015 25.6667 17.5 25.6667L18.725 23.625" stroke="#041557" stroke-width="1.5" stroke-linecap="round" stroke-linejoin="round"/>
<path d="M2.33337 10.4997C2.33337 5.98467 5.98504 2.33301 10.5 2.33301L9.27504 4.37467" stroke="#041557" stroke-width="1.5" stroke-linecap="round" stroke-linejoin="round"/>
<path d="M20.4166 12.833C23.3161 12.833 25.6666 10.4825 25.6666 7.58301C25.6666 4.68351 23.3161 2.33301 20.4166 2.33301C17.5171 2.33301 15.1666 4.68351 15.1666 7.58301C15.1666 10.4825 17.5171 12.833 20.4166 12.833Z" stroke="#041557" stroke-width="1.5" stroke-linecap="round" stroke-linejoin="round"/>
</svg>
