<?xml version="1.0" encoding="UTF-8"?>
<svg xmlns="http://www.w3.org/2000/svg" xmlns:xlink="http://www.w3.org/1999/xlink" width="24pt" height="24pt" viewBox="0 0 24 24" version="1.1">
<g id="surface1">
<path style=" stroke:none;fill-rule:nonzero;fill:rgb(100%,41.960144%,41.960144%);fill-opacity:1;" d="M 21.070313 5.230469 C 19.460938 5.070313 17.851563 4.949219 16.230469 4.859375 L 16.230469 4.851563 L 16.011719 3.550781 C 15.859375 2.628906 15.640625 1.25 13.300781 1.25 L 10.679688 1.25 C 8.351563 1.25 8.128906 2.570313 7.96875 3.539063 L 7.761719 4.820313 C 6.832031 4.878906 5.898438 4.941406 4.96875 5.03125 L 2.929688 5.230469 C 2.511719 5.269531 2.210938 5.640625 2.25 6.050781 C 2.289063 6.460938 2.648438 6.761719 3.070313 6.71875 L 5.109375 6.519531 C 10.351563 6 15.628906 6.199219 20.929688 6.730469 C 20.960938 6.730469 20.980469 6.730469 21.011719 6.730469 C 21.390625 6.730469 21.71875 6.441406 21.761719 6.050781 C 21.789063 5.640625 21.488281 5.269531 21.070313 5.230469 Z M 21.070313 5.230469 "/>
<path style=" stroke:none;fill-rule:nonzero;fill:rgb(100%,41.960144%,41.960144%);fill-opacity:1;" d="M 19.230469 8.140625 C 18.988281 7.890625 18.660156 7.75 18.320313 7.75 L 5.679688 7.75 C 5.339844 7.75 5 7.890625 4.769531 8.140625 C 4.539063 8.390625 4.410156 8.730469 4.429688 9.082031 L 5.050781 19.339844 C 5.160156 20.859375 5.300781 22.761719 8.789063 22.761719 L 15.210938 22.761719 C 18.699219 22.761719 18.839844 20.871094 18.949219 19.339844 L 19.570313 9.089844 C 19.589844 8.730469 19.460938 8.390625 19.230469 8.140625 Z M 13.660156 17.75 L 10.328125 17.75 C 9.921875 17.75 9.578125 17.410156 9.578125 17 C 9.578125 16.589844 9.921875 16.25 10.328125 16.25 L 13.660156 16.25 C 14.070313 16.25 14.410156 16.589844 14.410156 17 C 14.410156 17.410156 14.070313 17.75 13.660156 17.75 Z M 14.5 13.75 L 9.5 13.75 C 9.089844 13.75 8.75 13.410156 8.75 13 C 8.75 12.589844 9.089844 12.25 9.5 12.25 L 14.5 12.25 C 14.910156 12.25 15.25 12.589844 15.25 13 C 15.25 13.410156 14.910156 13.75 14.5 13.75 Z M 14.5 13.75 "/>
</g>
</svg>
