<?xml version="1.0" encoding="UTF-8"?>
<svg xmlns="http://www.w3.org/2000/svg" xmlns:xlink="http://www.w3.org/1999/xlink" width="28pt" height="28pt" viewBox="0 0 28 28" version="1.1">
<g id="surface1">
<path style=" stroke:none;fill-rule:nonzero;fill:rgb(100%,100%,100%);fill-opacity:1;" d="M 24.425781 7.722656 C 24.839844 7.765625 25.207031 7.464844 25.246094 7.050781 C 25.289063 6.640625 24.984375 6.273438 24.574219 6.230469 Z M 5.878906 6.742188 L 5.953125 7.492188 L 5.957031 7.488281 Z M 3.425781 6.230469 C 3.015625 6.269531 2.714844 6.636719 2.753906 7.050781 C 2.792969 7.460938 3.160156 7.765625 3.574219 7.722656 Z M 24.574219 6.230469 C 20.664063 5.84375 16.730469 5.644531 12.808594 5.644531 L 12.808594 7.144531 C 16.679688 7.144531 20.566406 7.339844 24.425781 7.722656 Z M 12.808594 5.644531 C 10.476563 5.644531 8.140625 5.761719 5.804688 5.996094 L 5.957031 7.488281 C 8.242188 7.257813 10.523438 7.144531 12.808594 7.144531 Z M 5.808594 5.996094 L 3.425781 6.230469 L 3.574219 7.722656 L 5.953125 7.492188 Z M 5.808594 5.996094 "/>
<path style=" stroke:none;fill-rule:nonzero;fill:rgb(100%,100%,100%);fill-opacity:1;" d="M 9.175781 5.675781 C 9.109375 6.082031 9.382813 6.46875 9.792969 6.539063 C 10.203125 6.605469 10.589844 6.332031 10.65625 5.921875 Z M 10.171875 4.269531 L 9.433594 4.144531 Z M 17.828125 4.28125 L 17.085938 4.402344 L 17.085938 4.40625 Z M 17.34375 5.921875 C 17.414063 6.332031 17.800781 6.605469 18.207031 6.539063 C 18.617188 6.46875 18.890625 6.082031 18.824219 5.671875 Z M 10.65625 5.921875 L 10.914063 4.394531 L 9.433594 4.144531 L 9.175781 5.675781 Z M 10.914063 4.394531 C 11.015625 3.78125 11.082031 3.535156 11.214844 3.382813 C 11.308594 3.277344 11.566406 3.082031 12.472656 3.082031 L 12.472656 1.582031 C 11.40625 1.582031 10.609375 1.804688 10.089844 2.390625 C 9.617188 2.925781 9.515625 3.652344 9.433594 4.144531 Z M 12.472656 3.082031 L 15.527344 3.082031 L 15.527344 1.582031 L 12.472656 1.582031 Z M 15.527344 3.082031 C 16.425781 3.082031 16.6875 3.285156 16.785156 3.398438 C 16.925781 3.558594 16.992188 3.8125 17.085938 4.402344 L 18.566406 4.160156 C 18.488281 3.675781 18.390625 2.957031 17.917969 2.414063 C 17.402344 1.820313 16.605469 1.582031 15.527344 1.582031 Z M 17.085938 4.40625 L 17.34375 5.921875 L 18.824219 5.671875 L 18.566406 4.15625 Z M 17.085938 4.40625 "/>
<path style=" stroke:none;fill-rule:nonzero;fill:rgb(100%,100%,100%);fill-opacity:1;" d="M 22.738281 10.710938 C 22.765625 10.296875 22.453125 9.941406 22.039063 9.914063 C 21.625 9.886719 21.269531 10.203125 21.242188 10.613281 Z M 21.234375 22.410156 L 21.980469 22.464844 L 21.980469 22.460938 Z M 6.765625 22.410156 L 6.019531 22.460938 L 6.019531 22.464844 Z M 6.757813 10.613281 C 6.730469 10.203125 6.371094 9.886719 5.960938 9.914063 C 5.546875 9.941406 5.234375 10.296875 5.257813 10.710938 Z M 21.242188 10.613281 L 20.484375 22.363281 L 21.980469 22.460938 L 22.738281 10.710938 Z M 20.484375 22.359375 C 20.453125 22.828125 20.421875 23.210938 20.355469 23.542969 C 20.289063 23.871094 20.195313 24.097656 20.066406 24.269531 C 19.832031 24.570313 19.296875 24.917969 17.746094 24.917969 L 17.746094 26.417969 C 19.449219 26.417969 20.589844 26.046875 21.257813 25.183594 C 21.574219 24.765625 21.734375 24.296875 21.828125 23.839844 C 21.917969 23.394531 21.949219 22.910156 21.980469 22.464844 Z M 17.746094 24.917969 L 10.253906 24.917969 L 10.253906 26.417969 L 17.746094 26.417969 Z M 10.253906 24.917969 C 8.703125 24.917969 8.164063 24.570313 7.933594 24.269531 C 7.800781 24.097656 7.707031 23.871094 7.644531 23.542969 C 7.574219 23.210938 7.546875 22.828125 7.515625 22.359375 L 6.019531 22.464844 C 6.050781 22.910156 6.082031 23.394531 6.171875 23.839844 C 6.265625 24.296875 6.421875 24.765625 6.742188 25.183594 C 7.410156 26.046875 8.550781 26.417969 10.253906 26.417969 Z M 7.515625 22.363281 L 6.757813 10.613281 L 5.257813 10.710938 L 6.019531 22.460938 Z M 7.515625 22.363281 "/>
<path style=" stroke:none;fill-rule:nonzero;fill:rgb(100%,100%,100%);fill-opacity:1;" d="M 12.050781 18.5 C 11.636719 18.5 11.300781 18.835938 11.300781 19.25 C 11.300781 19.664063 11.636719 20 12.050781 20 Z M 15.9375 20 C 16.351563 20 16.6875 19.664063 16.6875 19.25 C 16.6875 18.835938 16.351563 18.5 15.9375 18.5 Z M 12.050781 20 L 15.9375 20 L 15.9375 18.5 L 12.050781 18.5 Z M 12.050781 20 "/>
<path style=" stroke:none;fill-rule:nonzero;fill:rgb(100%,100%,100%);fill-opacity:1;" d="M 11.082031 13.832031 C 10.667969 13.832031 10.332031 14.167969 10.332031 14.582031 C 10.332031 14.996094 10.667969 15.332031 11.082031 15.332031 Z M 16.917969 15.332031 C 17.332031 15.332031 17.667969 14.996094 17.667969 14.582031 C 17.667969 14.167969 17.332031 13.832031 16.917969 13.832031 Z M 11.082031 15.332031 L 16.917969 15.332031 L 16.917969 13.832031 L 11.082031 13.832031 Z M 11.082031 15.332031 "/>
</g>
</svg>
