<?xml version="1.0" encoding="UTF-8"?>
<svg xmlns="http://www.w3.org/2000/svg" xmlns:xlink="http://www.w3.org/1999/xlink" width="24pt" height="24pt" viewBox="0 0 24 24" version="1.1">
<g id="surface1">
<path style=" stroke:none;fill-rule:nonzero;fill:rgb(60.391235%,63.136292%,73.724365%);fill-opacity:1;" d="M 21 22 L 3 22 C 2.589844 22 2.25 21.660156 2.25 21.25 C 2.25 20.839844 2.589844 20.5 3 20.5 L 21 20.5 C 21.410156 20.5 21.75 20.839844 21.75 21.25 C 21.75 21.660156 21.410156 22 21 22 Z M 21 22 "/>
<path style=" stroke:none;fill-rule:nonzero;fill:rgb(60.391235%,63.136292%,73.724365%);fill-opacity:1;" d="M 19.019531 3.480469 C 17.082031 1.539063 15.179688 1.488281 13.191406 3.480469 L 11.980469 4.691406 C 11.878906 4.789063 11.839844 4.949219 11.878906 5.089844 C 12.640625 7.738281 14.761719 9.859375 17.410156 10.621094 C 17.449219 10.628906 17.492188 10.640625 17.53125 10.640625 C 17.640625 10.640625 17.742188 10.601563 17.820313 10.519531 L 19.019531 9.308594 C 20.011719 8.328125 20.492188 7.378906 20.492188 6.417969 C 20.5 5.429688 20.019531 4.46875 19.019531 3.480469 Z M 19.019531 3.480469 "/>
<path style=" stroke:none;fill-rule:nonzero;fill:rgb(60.391235%,63.136292%,73.724365%);fill-opacity:1;" d="M 15.609375 11.527344 C 15.320313 11.390625 15.039063 11.25 14.769531 11.089844 C 14.550781 10.957031 14.339844 10.820313 14.128906 10.667969 C 13.960938 10.558594 13.757813 10.398438 13.570313 10.238281 C 13.550781 10.230469 13.480469 10.167969 13.398438 10.089844 C 13.070313 9.808594 12.699219 9.449219 12.371094 9.050781 C 12.339844 9.027344 12.289063 8.957031 12.21875 8.867188 C 12.121094 8.75 11.949219 8.550781 11.800781 8.320313 C 11.679688 8.167969 11.539063 7.949219 11.410156 7.730469 C 11.25 7.457031 11.109375 7.1875 10.96875 6.910156 C 10.949219 6.863281 10.929688 6.820313 10.90625 6.773438 C 10.761719 6.441406 10.324219 6.34375 10.066406 6.601563 L 4.339844 12.328125 C 4.210938 12.457031 4.089844 12.707031 4.058594 12.878906 L 3.519531 16.707031 C 3.417969 17.390625 3.609375 18.027344 4.03125 18.457031 C 4.390625 18.808594 4.890625 19 5.429688 19 C 5.550781 19 5.667969 18.988281 5.789063 18.96875 L 9.628906 18.429688 C 9.808594 18.398438 10.058594 18.277344 10.179688 18.148438 L 15.902344 12.425781 C 16.160156 12.167969 16.0625 11.722656 15.726563 11.578125 C 15.6875 11.5625 15.648438 11.546875 15.609375 11.527344 Z M 15.609375 11.527344 "/>
</g>
</svg>
