<?xml version="1.0" encoding="UTF-8"?>
<svg xmlns="http://www.w3.org/2000/svg" xmlns:xlink="http://www.w3.org/1999/xlink" width="28pt" height="28pt" viewBox="0 0 28 28" version="1.1">
<g id="surface1">
<path style=" stroke:none;fill-rule:nonzero;fill:rgb(100%,100%,100%);fill-opacity:1;" d="M 16.835938 17.726563 C 17.25 17.726563 17.585938 17.390625 17.585938 16.976563 C 17.585938 16.558594 17.25 16.226563 16.835938 16.226563 Z M 11 16.226563 C 10.585938 16.226563 10.25 16.558594 10.25 16.976563 C 10.25 17.390625 10.585938 17.726563 11 17.726563 Z M 16.835938 16.226563 L 11 16.226563 L 11 17.726563 L 16.835938 17.726563 Z M 16.835938 16.226563 "/>
<path style=" stroke:none;fill-rule:nonzero;fill:rgb(100%,100%,100%);fill-opacity:1;" d="M 16.285156 17.484375 C 16.566406 17.789063 17.042969 17.804688 17.34375 17.523438 C 17.648438 17.242188 17.667969 16.765625 17.382813 16.464844 Z M 15.550781 14.488281 C 15.265625 14.1875 14.792969 14.167969 14.488281 14.449219 C 14.1875 14.734375 14.167969 15.207031 14.449219 15.511719 Z M 17.382813 16.464844 L 15.550781 14.488281 L 14.449219 15.511719 L 16.285156 17.484375 Z M 17.382813 16.464844 "/>
<path style=" stroke:none;fill-rule:nonzero;fill:rgb(100%,100%,100%);fill-opacity:1;" d="M 14.449219 18.492188 C 14.167969 18.796875 14.1875 19.273438 14.492188 19.550781 C 14.796875 19.832031 15.273438 19.8125 15.554688 19.507813 Z M 17.386719 17.507813 C 17.667969 17.203125 17.648438 16.726563 17.34375 16.449219 C 17.035156 16.167969 16.5625 16.1875 16.28125 16.492188 Z M 15.554688 19.507813 L 17.386719 17.507813 L 16.28125 16.492188 L 14.449219 18.492188 Z M 15.554688 19.507813 "/>
<path style=" stroke:none;fill-rule:nonzero;fill:rgb(100%,100%,100%);fill-opacity:1;" d="M 12.714844 3.734375 L 12.117188 4.183594 Z M 14.464844 6.066406 L 13.867188 6.515625 L 13.871094 6.519531 Z M 24.917969 12.832031 L 24.917969 19.832031 L 26.417969 19.832031 L 26.417969 12.832031 Z M 24.917969 19.832031 C 24.917969 22.171875 24.605469 23.332031 23.96875 23.96875 C 23.332031 24.605469 22.171875 24.917969 19.832031 24.917969 L 19.832031 26.417969 C 22.160156 26.417969 23.917969 26.144531 25.03125 25.03125 C 26.144531 23.917969 26.417969 22.160156 26.417969 19.832031 Z M 19.832031 24.917969 L 8.167969 24.917969 L 8.167969 26.417969 L 19.832031 26.417969 Z M 8.167969 24.917969 C 5.828125 24.917969 4.667969 24.605469 4.03125 23.96875 C 3.394531 23.332031 3.082031 22.171875 3.082031 19.832031 L 1.582031 19.832031 C 1.582031 22.160156 1.855469 23.917969 2.96875 25.03125 C 4.082031 26.144531 5.839844 26.417969 8.167969 26.417969 Z M 3.082031 19.832031 L 3.082031 8.167969 L 1.582031 8.167969 L 1.582031 19.832031 Z M 3.082031 8.167969 C 3.082031 5.828125 3.394531 4.667969 4.03125 4.03125 C 4.667969 3.394531 5.828125 3.082031 8.167969 3.082031 L 8.167969 1.582031 C 5.839844 1.582031 4.082031 1.855469 2.96875 2.96875 C 1.855469 4.082031 1.582031 5.839844 1.582031 8.167969 Z M 8.167969 3.082031 L 9.917969 3.082031 L 9.917969 1.582031 L 8.167969 1.582031 Z M 9.917969 3.082031 C 10.726563 3.082031 11.105469 3.203125 11.335938 3.34375 C 11.585938 3.496094 11.765625 3.714844 12.117188 4.183594 L 13.316406 3.285156 C 13 2.863281 12.65625 2.386719 12.109375 2.058594 C 11.546875 1.71875 10.855469 1.582031 9.917969 1.582031 Z M 12.117188 4.183594 L 13.867188 6.515625 L 15.066406 5.617188 L 13.316406 3.285156 Z M 13.871094 6.519531 C 14.070313 6.785156 14.332031 7.144531 14.742188 7.394531 C 15.171875 7.652344 15.683594 7.75 16.332031 7.75 L 16.332031 6.25 C 15.816406 6.25 15.617188 6.171875 15.515625 6.109375 C 15.394531 6.039063 15.304688 5.929688 15.0625 5.613281 Z M 16.332031 7.75 L 19.832031 7.75 L 19.832031 6.25 L 16.332031 6.25 Z M 19.832031 7.75 C 22.171875 7.75 23.332031 8.058594 23.96875 8.695313 C 24.605469 9.332031 24.917969 10.496094 24.917969 12.832031 L 26.417969 12.832031 C 26.417969 10.503906 26.144531 8.75 25.03125 7.636719 C 23.917969 6.523438 22.160156 6.25 19.832031 6.25 Z M 19.832031 7.75 "/>
</g>
</svg>
