<svg width="30" height="31" viewBox="0 0 30 31" fill="none" xmlns="http://www.w3.org/2000/svg">
<path d="M26.4676 11.0363C26.8347 11.6233 26.358 12.313 25.6657 12.313H3.5C2.94771 12.313 2.5 11.8653 2.5 11.313V8.77549C2.5 5.72549 4.975 3.25049 8.025 3.25049H10.925C12.9625 3.25049 13.6 3.91299 14.4125 5.00049L16.1625 7.32549C16.55 7.83799 16.6 7.90049 17.325 7.90049H20.8125C23.1954 7.90049 25.2888 9.15183 26.4676 11.0363Z" fill="white"/>
<path d="M27.4784 15.1836C27.4765 14.6327 27.0293 14.187 26.4784 14.187L3.49998 14.1874C2.94771 14.1874 2.5 14.6352 2.5 15.1874V21.5625C2.5 25.25 5.5 28.25 9.1875 28.25H20.8125C24.5 28.25 27.5 25.25 27.5 21.5625L27.4784 15.1836ZM18.125 21.6875H16.0125V23.875C16.0125 24.3875 15.5875 24.8125 15.075 24.8125C14.55 24.8125 14.1375 24.3875 14.1375 23.875V21.6875H11.875C11.3625 21.6875 10.9375 21.2625 10.9375 20.75C10.9375 20.2375 11.3625 19.8125 11.875 19.8125H14.1375V17.625C14.1375 17.1125 14.55 16.6875 15.075 16.6875C15.5875 16.6875 16.0125 17.1125 16.0125 17.625V19.8125H18.125C18.6375 19.8125 19.0625 20.2375 19.0625 20.75C19.0625 21.2625 18.6375 21.6875 18.125 21.6875Z" fill="white"/>
</svg>
