<svg width="56" height="56" viewBox="0 0 56 56" fill="none" xmlns="http://www.w3.org/2000/svg">
<path d="M6.01987 44.3568L5.9732 44.4035C5.3432 43.0268 4.94654 41.4635 4.7832 39.7368C4.94654 41.4401 5.38987 42.9801 6.01987 44.3568Z" fill="white"/>
<path d="M21.0001 24.2199C24.0671 24.2199 26.5534 21.7336 26.5534 18.6666C26.5534 15.5996 24.0671 13.1133 21.0001 13.1133C17.9331 13.1133 15.4468 15.5996 15.4468 18.6666C15.4468 21.7336 17.9331 24.2199 21.0001 24.2199Z" fill="white"/>
<path d="M37.7765 4.66675H18.2232C9.72984 4.66675 4.6665 9.73008 4.6665 18.2234V37.7768C4.6665 40.3201 5.10984 42.5368 5.97317 44.4034C7.97984 48.8368 12.2732 51.3334 18.2232 51.3334H37.7765C46.2698 51.3334 51.3332 46.2701 51.3332 37.7768V32.4334V18.2234C51.3332 9.73008 46.2698 4.66675 37.7765 4.66675ZM47.5298 29.1667C45.7098 27.6034 42.7698 27.6034 40.9498 29.1667L31.2432 37.4967C29.4232 39.0601 26.4832 39.0601 24.6632 37.4967L23.8698 36.8434C22.2132 35.3967 19.5765 35.2568 17.7098 36.5167L8.98317 42.3734C8.46984 41.0667 8.1665 39.5501 8.1665 37.7768V18.2234C8.1665 11.6434 11.6432 8.16675 18.2232 8.16675H37.7765C44.3565 8.16675 47.8332 11.6434 47.8332 18.2234V29.4234L47.5298 29.1667Z" fill="white"/>
</svg>
