<svg width="68" height="68" viewBox="0 0 68 68" fill="none" xmlns="http://www.w3.org/2000/svg">
<circle cx="34" cy="34" r="34" fill="#F6F8FF"/>
<path d="M30.7251 43.3223C29.388 43.3223 28.2998 44.4105 28.2998 45.7475C28.2998 47.0852 29.388 48.1734 30.7251 48.1734C32.0621 48.1734 33.1503 47.0852 33.1503 45.7475C33.1503 44.4105 32.0621 43.3223 30.7251 43.3223Z" fill="#809AF9"/>
<path d="M37.0677 35.2507C35.1587 34.0924 32.9654 33.4805 30.7251 33.4805C28.4842 33.4805 26.2909 34.0924 24.3819 35.2507C23.7525 35.632 23.3412 36.2689 23.2537 36.9977C23.1662 37.7222 23.4124 38.4341 23.9288 38.9504L24.0013 39.0229C24.4444 39.4661 25.0364 39.7099 25.6683 39.7099C26.1052 39.7099 26.5372 39.5899 26.9159 39.363C28.0648 38.6748 29.3818 38.311 30.7251 38.311C32.0684 38.311 33.3854 38.6748 34.5336 39.363C34.9131 39.5899 35.3444 39.7099 35.7819 39.7099C36.397 39.7099 36.9745 39.4786 37.4133 39.0579L37.5215 38.9492C38.0378 38.4335 38.284 37.7222 38.1965 36.9983C38.1084 36.2689 37.6971 35.632 37.0677 35.2507Z" fill="#809AF9"/>
<path d="M34.3059 24.032C33.1374 23.8178 31.9408 23.709 30.7257 23.709C26.4196 23.709 22.3435 25.0748 18.9382 27.6594C18.3919 28.0738 18.0518 28.7039 18.0056 29.3877C17.9587 30.069 18.2093 30.736 18.695 31.221L18.77 31.2973C19.2163 31.743 19.8126 31.9886 20.449 31.9886C20.9659 31.9886 21.4534 31.8261 21.8597 31.5186C24.4325 29.5696 27.4978 28.5401 30.7257 28.5401C31.848 28.5401 32.9506 28.6649 34.0198 28.9092C33.6701 27.2952 33.7656 25.6035 34.3059 24.032Z" fill="#809AF9"/>
<path d="M47.906 21.9198C45.1146 19.1283 40.5725 19.1283 37.7811 21.9198C34.9896 24.7113 34.9896 29.2533 37.7811 32.0447C39.1333 33.397 40.9312 34.1417 42.8435 34.1417C44.7559 34.1417 46.5538 33.397 47.906 32.0447C50.6975 29.2533 50.6975 24.7112 47.906 21.9198ZM45.1588 27.9716C45.525 28.3377 45.525 28.9314 45.1588 29.2975C44.9757 29.4806 44.7358 29.5722 44.4959 29.5722C44.256 29.5722 44.0159 29.4807 43.8329 29.2975L42.8436 28.3082L41.8543 29.2975C41.6712 29.4806 41.4313 29.5722 41.1914 29.5722C40.9515 29.5722 40.7114 29.4807 40.5284 29.2975C40.1623 28.9314 40.1623 28.3377 40.5284 27.9716L41.5177 26.9823L40.5284 25.993C40.1623 25.6268 40.1623 25.0332 40.5284 24.667C40.8945 24.3009 41.4882 24.3009 41.8544 24.667L42.8437 25.6563L43.833 24.667C44.1991 24.3009 44.7928 24.3009 45.1589 24.667C45.5251 25.0332 45.5251 25.6268 45.1589 25.993L44.1696 26.9823L45.1588 27.9716Z" fill="#809AF9"/>
</svg>
