<?xml version="1.0" encoding="UTF-8"?>
<svg xmlns="http://www.w3.org/2000/svg" xmlns:xlink="http://www.w3.org/1999/xlink" width="28pt" height="28pt" viewBox="0 0 28 28" version="1.1">
<g id="surface1">
<path style=" stroke:none;fill-rule:nonzero;fill:rgb(100%,100%,100%);fill-opacity:1;" d="M 14 26.417969 C 20.832031 26.417969 26.417969 20.832031 26.417969 14 L 24.917969 14 C 24.917969 20.003906 20.003906 24.917969 14 24.917969 Z M 26.417969 14 C 26.417969 7.167969 20.832031 1.582031 14 1.582031 L 14 3.082031 C 20.003906 3.082031 24.917969 7.996094 24.917969 14 Z M 14 1.582031 C 7.167969 1.582031 1.582031 7.167969 1.582031 14 L 3.082031 14 C 3.082031 7.996094 7.996094 3.082031 14 3.082031 Z M 1.582031 14 C 1.582031 20.832031 7.167969 26.417969 14 26.417969 L 14 24.917969 C 7.996094 24.917969 3.082031 20.003906 3.082031 14 Z M 1.582031 14 "/>
<path style=" stroke:none;fill-rule:nonzero;fill:rgb(100%,100%,100%);fill-opacity:1;" d="M 14.75 9.332031 C 14.75 8.917969 14.414063 8.582031 14 8.582031 C 13.585938 8.582031 13.25 8.917969 13.25 9.332031 Z M 13.25 15.167969 C 13.25 15.582031 13.585938 15.917969 14 15.917969 C 14.414063 15.917969 14.75 15.582031 14.75 15.167969 Z M 13.25 9.332031 L 13.25 15.167969 L 14.75 15.167969 L 14.75 9.332031 Z M 13.25 9.332031 "/>
<path style=" stroke:none;fill-rule:nonzero;fill:rgb(100%,100%,100%);fill-opacity:1;" d="M 13.992188 17.667969 C 13.441406 17.667969 12.992188 18.113281 12.992188 18.667969 C 12.992188 19.21875 13.441406 19.667969 13.992188 19.667969 Z M 14.003906 19.667969 C 14.558594 19.667969 15.003906 19.21875 15.003906 18.667969 C 15.003906 18.113281 14.558594 17.667969 14.003906 17.667969 Z M 13.992188 19.667969 L 14.003906 19.667969 L 14.003906 17.667969 L 13.992188 17.667969 Z M 13.992188 19.667969 "/>
</g>
</svg>
