<?xml version="1.0" encoding="UTF-8"?>
<svg xmlns="http://www.w3.org/2000/svg" xmlns:xlink="http://www.w3.org/1999/xlink" width="36pt" height="36pt" viewBox="0 0 36 36" version="1.1">
<g id="surface1">
<path style=" stroke:none;fill-rule:nonzero;fill:rgb(96.469116%,97.253418%,100%);fill-opacity:1;" d="M 36 18 C 36 27.941406 27.941406 36 18 36 C 8.058594 36 0 27.941406 0 18 C 0 8.058594 8.058594 0 18 0 C 27.941406 0 36 8.058594 36 18 Z M 36 18 "/>
<path style=" stroke:none;fill-rule:nonzero;fill:rgb(29.019165%,43.136597%,96.469116%);fill-opacity:1;" d="M 20.675781 11.796875 C 21.070313 11.917969 21.488281 11.691406 21.609375 11.292969 C 21.726563 10.898438 21.5 10.480469 21.105469 10.363281 Z M 25.835938 14.09375 C 25.605469 13.75 25.140625 13.65625 24.792969 13.886719 C 24.449219 14.117188 24.355469 14.582031 24.585938 14.925781 Z M 21.105469 10.363281 C 20.175781 10.082031 19.140625 9.898438 18 9.898438 L 18 11.398438 C 18.976563 11.398438 19.867188 11.558594 20.675781 11.796875 Z M 18 9.898438 C 12.796875 9.898438 8.578125 14.117188 8.578125 19.320313 L 10.078125 19.320313 C 10.078125 14.945313 13.625 11.398438 18 11.398438 Z M 8.578125 19.320313 C 8.578125 24.535156 12.796875 28.75 18 28.75 L 18 27.25 C 13.625 27.25 10.078125 23.707031 10.078125 19.320313 Z M 18 28.75 C 23.203125 28.75 27.421875 24.535156 27.421875 19.332031 L 25.921875 19.332031 C 25.921875 23.707031 22.375 27.25 18 27.25 Z M 27.421875 19.332031 C 27.421875 17.398438 26.832031 15.59375 25.835938 14.09375 L 24.585938 14.925781 C 25.425781 16.1875 25.921875 17.703125 25.921875 19.332031 Z M 27.421875 19.332031 "/>
<path style=" stroke:none;fill-rule:nonzero;fill:rgb(29.019165%,43.136597%,96.469116%);fill-opacity:1;" d="M 21.566406 11.8125 C 21.835938 12.125 22.308594 12.15625 22.621094 11.886719 C 22.933594 11.613281 22.96875 11.140625 22.695313 10.828125 Z M 19.804688 7.507813 C 19.535156 7.195313 19.058594 7.164063 18.746094 7.433594 C 18.433594 7.707031 18.402344 8.179688 18.675781 8.492188 Z M 22.695313 10.828125 L 19.804688 7.507813 L 18.675781 8.492188 L 21.566406 11.8125 Z M 22.695313 10.828125 "/>
<path style=" stroke:none;fill-rule:nonzero;fill:rgb(29.019165%,43.136597%,96.469116%);fill-opacity:1;" d="M 22.570313 11.925781 C 22.90625 11.683594 22.980469 11.210938 22.734375 10.878906 C 22.492188 10.542969 22.023438 10.46875 21.6875 10.714844 Z M 18.316406 13.175781 C 17.984375 13.417969 17.910156 13.886719 18.152344 14.222656 C 18.398438 14.558594 18.867188 14.628906 19.203125 14.386719 Z M 21.6875 10.714844 L 18.316406 13.175781 L 19.203125 14.386719 L 22.570313 11.925781 Z M 21.6875 10.714844 "/>
</g>
</svg>
