<svg width="46" height="36" viewBox="0 0 46 36" fill="none" xmlns="http://www.w3.org/2000/svg">
<path d="M44 12H40V8C40.0006 7.60589 39.9233 7.21555 39.7727 6.85133C39.6222 6.48712 39.4012 6.15619 39.1225 5.87751C38.8438 5.59883 38.5129 5.37787 38.1487 5.22729C37.7845 5.07671 37.3941 4.99948 37 5H21.75C21.3035 5.0001 20.8626 4.90049 20.4595 4.70846C20.0564 4.51642 19.7013 4.2368 19.42 3.89L17.46 1.48C17.0864 1.01771 16.6141 0.644867 16.0777 0.388781C15.5413 0.132696 14.9544 -0.000141309 14.36 2.67404e-06H3.00004C2.60592 -0.000523865 2.21558 0.0767143 1.85136 0.227292C1.48715 0.37787 1.15622 0.598827 0.877541 0.877508C0.59886 1.15619 0.377902 1.48712 0.227324 1.85133C0.0767469 2.21554 -0.000491043 2.60589 3.54959e-05 3V32.57C-0.00203261 33.0204 0.0862904 33.4667 0.259776 33.8824C0.433261 34.298 0.688382 34.6747 1.01004 34.99C1.32535 35.3117 1.702 35.5668 2.11768 35.7403C2.53335 35.9138 2.97961 36.0021 3.43004 36H37.09C37.833 35.9998 38.556 35.759 39.1508 35.3138C39.7456 34.8686 40.1804 34.2428 40.39 33.53L45.92 14.56C46.0063 14.262 46.0222 13.9479 45.9664 13.6427C45.9106 13.3375 45.7846 13.0494 45.5984 12.8012C45.4123 12.553 45.171 12.3514 44.8936 12.2124C44.6162 12.0733 44.3103 12.0006 44 12Z" fill="#809AF9"/>
<path d="M43.9988 12H15.5726C14.8305 12.0001 14.1084 12.2409 13.5147 12.6863C12.921 13.1316 12.4878 13.7575 12.2801 14.47L6.72011 33.5314C6.5124 34.2436 6.07931 34.8692 5.48584 35.3143C4.89237 35.7594 4.17055 36 3.42871 36H37.0925C37.8348 36.0001 38.5571 35.7594 39.1509 35.314C39.7447 34.8686 40.1781 34.2426 40.3858 33.53L45.9189 14.56C46.0059 14.2619 46.0222 13.9477 45.9666 13.6422C45.9111 13.3367 45.7852 13.0484 45.5989 12.8C45.4126 12.5516 45.171 12.35 44.8933 12.2111C44.6155 12.0723 44.3093 12 43.9988 12Z" fill="#B7C5FB"/>
</svg>
