<svg width="20" height="20" viewBox="0 0 20 20" fill="none" xmlns="http://www.w3.org/2000/svg">
<path d="M9.99994 14.4584C10.7501 14.4584 11.3583 13.8502 11.3583 13.1C11.3583 12.3498 10.7501 11.7417 9.99994 11.7417C9.24975 11.7417 8.6416 12.3498 8.6416 13.1C8.6416 13.8502 9.24975 14.4584 9.99994 14.4584Z" fill="#A7B0BA"/>
<path d="M15.2333 7.94175V6.90008C15.2333 4.65008 14.6916 1.66675 9.99996 1.66675C5.30829 1.66675 4.76663 4.65008 4.76663 6.90008V7.94175C2.43329 8.23341 1.66663 9.41675 1.66663 12.3251V13.8751C1.66663 17.2917 2.70829 18.3334 6.12496 18.3334H13.875C17.2916 18.3334 18.3333 17.2917 18.3333 13.8751V12.3251C18.3333 9.41675 17.5666 8.23341 15.2333 7.94175ZM9.99996 15.6167C8.60829 15.6167 7.48329 14.4834 7.48329 13.1001C7.48329 11.7084 8.61663 10.5834 9.99996 10.5834C11.3833 10.5834 12.5166 11.7167 12.5166 13.1001C12.5166 14.4917 11.3916 15.6167 9.99996 15.6167ZM6.12496 7.86675C6.05829 7.86675 5.99996 7.86675 5.93329 7.86675V6.90008C5.93329 4.45841 6.62496 2.83341 9.99996 2.83341C13.375 2.83341 14.0666 4.45841 14.0666 6.90008V7.87508C14 7.87508 13.9416 7.87508 13.875 7.87508H6.12496V7.86675Z" fill="#A7B0BA"/>
</svg>
