<svg width="48" height="51" viewBox="0 0 48 51" fill="none" xmlns="http://www.w3.org/2000/svg">
<path d="M42 51H9.75C9.55109 51 9.36032 50.916 9.21967 50.7666C9.07902 50.6172 9 50.4145 9 50.2031V0.796875C9 0.585531 9.07902 0.382842 9.21967 0.233399C9.36032 0.0839562 9.55109 0 9.75 0L34.2465 0C34.4454 4.51329e-05 34.6361 0.084031 34.7767 0.233484L42.5303 8.47158C42.6709 8.62099 42.75 8.82364 42.75 9.03497V50.2031C42.75 50.4145 42.671 50.6172 42.5303 50.7666C42.3897 50.916 42.1989 51 42 51Z" fill="#809AF9"/>
<path d="M5.25 26.2538L8.25 24.8457L10.344 28.2603H5.25V26.2538Z" fill="url(#paint0_linear_16218_13593)"/>
<path d="M41.25 51H9C8.80109 51 8.61032 50.916 8.46967 50.7666C8.32902 50.6172 8.25 50.4145 8.25 50.2031V0.796875C8.25 0.585531 8.32902 0.382842 8.46967 0.233399C8.61032 0.0839562 8.80109 0 9 0L33.807 0L42 8.70506V50.2031C42 50.4145 41.921 50.6172 41.7803 50.7666C41.6397 50.916 41.4489 51 41.25 51Z" fill="white"/>
<path d="M33.8071 0V7.90819C33.8071 8.11953 33.8861 8.32222 34.0268 8.47166C34.1675 8.62111 34.3582 8.70506 34.5571 8.70506H42.0001L38.3251 4.0035L33.8071 0Z" fill="#809AF9"/>
<path d="M34.5165 41.8358H6.5775C6.40314 41.8359 6.23048 41.7995 6.06937 41.7287C5.90827 41.6578 5.76189 41.5539 5.6386 41.4229C5.51531 41.2919 5.41753 41.1364 5.35085 40.9652C5.28417 40.7941 5.2499 40.6106 5.25 40.4253V27.6626H34.5165C34.8685 27.6628 35.2061 27.8115 35.455 28.0759C35.7039 28.3404 35.8438 28.6991 35.844 29.0731V40.4253C35.844 40.7994 35.7041 41.1582 35.4552 41.4227C35.2062 41.6872 34.8686 41.8358 34.5165 41.8358Z" fill="#FF4A4A"/>
<path d="M8.25 24.8457H6.576C6.4019 24.8456 6.22949 24.8819 6.06862 24.9527C5.90775 25.0234 5.76156 25.1271 5.63842 25.2578C5.51528 25.3886 5.4176 25.5439 5.35095 25.7147C5.2843 25.8856 5.25 26.0688 5.25 26.2538C5.2499 26.4388 5.28413 26.6221 5.35074 26.7931C5.41734 26.964 5.51501 27.1194 5.63816 27.2502C5.76131 27.3811 5.90752 27.4849 6.06845 27.5556C6.22937 27.6264 6.40184 27.6628 6.576 27.6627H8.25V24.8457Z" fill="#D70A0A"/>
<path d="M11.25 37.4803V32.0186C11.2499 31.9277 11.2667 31.8376 11.2993 31.7536C11.332 31.6696 11.3799 31.5933 11.4404 31.529C11.5009 31.4646 11.5727 31.4136 11.6517 31.3788C11.7307 31.344 11.8154 31.3261 11.901 31.3261C12.8963 31.2855 13.893 31.3198 14.8837 31.4289C15.2846 31.5525 15.6331 31.8193 15.8702 32.1843C16.1073 32.5493 16.2185 32.9901 16.185 33.4322C16.2146 33.9008 16.0862 34.3653 15.823 34.7426C15.5597 35.1199 15.1786 35.3853 14.748 35.4913C14.0884 35.5753 13.4239 35.608 12.7598 35.5894C12.7043 35.5894 12.651 35.6128 12.6118 35.6545C12.5725 35.6962 12.5505 35.7527 12.5505 35.8117V37.4803C12.5505 37.5711 12.5337 37.6609 12.501 37.7447C12.4683 37.8286 12.4204 37.9047 12.36 37.9689C12.2997 38.033 12.228 38.0839 12.1491 38.1186C12.0702 38.1534 11.9856 38.1712 11.9003 38.1712C11.7278 38.1712 11.5624 38.0984 11.4405 37.9689C11.3185 37.8393 11.25 37.6636 11.25 37.4803ZM12.5505 32.7071V34.2044C12.5505 34.2634 12.5725 34.3199 12.6118 34.3616C12.651 34.4033 12.7043 34.4267 12.7598 34.4267C13.2722 34.4643 13.7871 34.4281 14.2905 34.3191C14.4685 34.2439 14.6185 34.109 14.7177 33.9348C14.8169 33.7607 14.8598 33.5569 14.8399 33.3544C14.8201 33.152 14.7385 32.962 14.6076 32.8133C14.4768 32.6647 14.3038 32.5655 14.115 32.531C13.6644 32.4897 13.212 32.474 12.7598 32.4839C12.7323 32.484 12.7051 32.4899 12.6797 32.5012C12.6544 32.5124 12.6314 32.5289 12.612 32.5496C12.5926 32.5703 12.5773 32.5949 12.5669 32.6219C12.5565 32.6489 12.5512 32.6779 12.5513 32.7071H12.5505Z" fill="white"/>
<path d="M17.25 32.0194C17.2499 31.9285 17.2667 31.8385 17.2993 31.7545C17.332 31.6704 17.3799 31.5941 17.4404 31.5298C17.5009 31.4655 17.5727 31.4145 17.6517 31.3796C17.7307 31.3448 17.8154 31.3269 17.901 31.3269C18.8866 31.2644 19.8757 31.3082 20.853 31.4576C21.2312 31.5876 21.5737 31.8141 21.8504 32.1174C22.1271 32.4207 22.3295 32.7914 22.44 33.1972C22.5922 33.7207 22.6634 34.2671 22.6508 34.8148C22.6606 35.3087 22.5937 35.8008 22.4528 36.2715C22.3494 36.6854 22.1475 37.0641 21.8665 37.3711C21.5856 37.6782 21.235 37.9032 20.8485 38.0247C19.8725 38.1714 18.8856 38.22 17.901 38.1697C17.7287 38.1697 17.5635 38.0971 17.4415 37.9679C17.3194 37.8387 17.2506 37.6634 17.25 37.4804V32.0194ZM18.5505 32.7079V36.7967C18.5505 36.8556 18.5725 36.9122 18.6118 36.9539C18.651 36.9956 18.7043 37.019 18.7598 37.019C19.2768 37.0493 19.7954 37.0274 20.3085 36.9537C20.5249 36.9053 20.7229 36.7895 20.877 36.621C21.0312 36.4525 21.1346 36.239 21.174 36.0078C21.2735 35.5987 21.318 35.1766 21.306 34.7543C21.3199 34.3434 21.2754 33.9326 21.174 33.5359C21.1171 33.2897 20.9951 33.0661 20.8223 32.8914C20.6495 32.7167 20.4332 32.5982 20.199 32.5501C19.7199 32.4941 19.2378 32.4723 18.756 32.4848C18.7009 32.4856 18.6483 32.5095 18.6097 32.5513C18.5711 32.5931 18.5503 32.6493 18.5505 32.7079Z" fill="white"/>
<path d="M23.7617 37.4814V32.0196C23.7617 31.836 23.8304 31.6598 23.9526 31.53C24.0748 31.4001 24.2406 31.3271 24.4135 31.3271H27.6332C27.7778 31.3271 27.9165 31.3882 28.0188 31.4968C28.121 31.6055 28.1785 31.7528 28.1785 31.9065C28.1785 31.9825 28.1644 32.0578 28.1369 32.1281C28.1095 32.1983 28.0694 32.2621 28.0187 32.3158C27.9681 32.3696 27.908 32.4122 27.8418 32.4412C27.7757 32.4702 27.7048 32.4851 27.6332 32.485H25.2752C25.2477 32.485 25.2204 32.4908 25.195 32.502C25.1695 32.5132 25.1464 32.5297 25.127 32.5504C25.1075 32.5711 25.0922 32.5957 25.0817 32.6228C25.0712 32.6499 25.0659 32.6789 25.066 32.7081V33.8827C25.0659 33.912 25.0712 33.941 25.0817 33.9681C25.0922 33.9951 25.1075 34.0197 25.127 34.0405C25.1464 34.0612 25.1695 34.0776 25.195 34.0889C25.2204 34.1001 25.2477 34.1059 25.2752 34.1059H27.2102C27.3547 34.1059 27.4933 34.1668 27.5955 34.2753C27.6977 34.3837 27.7553 34.5309 27.7555 34.6844C27.7553 34.838 27.6978 34.9852 27.5955 35.0938C27.4933 35.2024 27.3548 35.2635 27.2102 35.2637H25.2752C25.2477 35.2637 25.2205 35.2695 25.1951 35.2806C25.1698 35.2918 25.1467 35.3082 25.1273 35.3288C25.1078 35.3495 25.0924 35.374 25.0819 35.401C25.0714 35.4279 25.066 35.4568 25.066 35.486V37.4782C25.0658 37.6615 24.9971 37.8373 24.875 37.9668C24.753 38.0964 24.5875 38.1691 24.415 38.1691C24.3296 38.1695 24.2449 38.1521 24.1659 38.1177C24.0869 38.0834 24.015 38.0329 23.9543 37.969C23.8936 37.9052 23.8454 37.8292 23.8124 37.7456C23.7793 37.6619 23.7621 37.5721 23.7617 37.4814Z" fill="white"/>
<rect x="14" y="9" width="16" height="2" rx="0.5" fill="#EDF0FE"/>
<rect x="14" y="14" width="22" height="2" rx="0.5" fill="#EDF0FE"/>
<rect x="14" y="17" width="22" height="2" rx="0.5" fill="#EDF0FE"/>
<rect x="14" y="22" width="22" height="2" rx="0.5" fill="#EDF0FE"/>
<defs>
<linearGradient id="paint0_linear_16218_13593" x1="7.797" y1="24.264" x2="7.797" y2="95.3851" gradientUnits="userSpaceOnUse">
<stop stop-color="#FF5252"/>
<stop offset="1" stop-color="#D50000"/>
</linearGradient>
</defs>
</svg>
