<?xml version="1.0" encoding="UTF-8"?>
<svg xmlns="http://www.w3.org/2000/svg" xmlns:xlink="http://www.w3.org/1999/xlink" width="28pt" height="28pt" viewBox="0 0 28 28" version="1.1">
<g id="surface1">
<path style=" stroke:none;fill-rule:nonzero;fill:rgb(100%,100%,100%);fill-opacity:1;" d="M 24.449219 6 C 24.449219 7.796875 22.996094 9.25 21.199219 9.25 L 21.199219 10.75 C 23.824219 10.75 25.949219 8.625 25.949219 6 Z M 21.199219 9.25 C 19.40625 9.25 17.949219 7.796875 17.949219 6 L 16.449219 6 C 16.449219 8.625 18.578125 10.75 21.199219 10.75 Z M 17.949219 6 C 17.949219 4.203125 19.40625 2.75 21.199219 2.75 L 21.199219 1.25 C 18.578125 1.25 16.449219 3.375 16.449219 6 Z M 21.199219 2.75 C 22.996094 2.75 24.449219 4.203125 24.449219 6 L 25.949219 6 C 25.949219 3.375 23.824219 1.25 21.199219 1.25 Z M 21.199219 2.75 "/>
<path style=" stroke:none;fill-rule:nonzero;fill:rgb(100%,100%,100%);fill-opacity:1;" d="M 10.050781 14.398438 C 10.050781 16.195313 8.59375 17.648438 6.800781 17.648438 L 6.800781 19.148438 C 9.421875 19.148438 11.550781 17.023438 11.550781 14.398438 Z M 6.800781 17.648438 C 5.003906 17.648438 3.550781 16.195313 3.550781 14.398438 L 2.050781 14.398438 C 2.050781 17.023438 4.175781 19.148438 6.800781 19.148438 Z M 3.550781 14.398438 C 3.550781 12.605469 5.003906 11.148438 6.800781 11.148438 L 6.800781 9.648438 C 4.175781 9.648438 2.050781 11.777344 2.050781 14.398438 Z M 6.800781 11.148438 C 8.59375 11.148438 10.050781 12.605469 10.050781 14.398438 L 11.550781 14.398438 C 11.550781 11.777344 9.421875 9.648438 6.800781 9.648438 Z M 6.800781 11.148438 "/>
<path style=" stroke:none;fill-rule:nonzero;fill:rgb(100%,100%,100%);fill-opacity:1;" d="M 17.128906 7.347656 C 17.488281 7.144531 17.945313 7.269531 18.152344 7.628906 C 18.355469 7.988281 18.230469 8.445313 17.871094 8.652344 Z M 10.871094 12.652344 C 10.511719 12.855469 10.054688 12.730469 9.847656 12.371094 C 9.644531 12.011719 9.769531 11.554688 10.128906 11.347656 Z M 10.128906 11.347656 L 17.128906 7.347656 L 17.871094 8.652344 L 10.871094 12.652344 Z M 10.128906 11.347656 "/>
<path style=" stroke:none;fill-rule:nonzero;fill:rgb(100%,100%,100%);fill-opacity:1;" d="M 10.863281 15.84375 C 10.5 15.644531 10.042969 15.773438 9.84375 16.136719 C 9.644531 16.5 9.773438 16.957031 10.136719 17.15625 Z M 16.835938 20.855469 C 17.199219 21.058594 17.65625 20.925781 17.855469 20.5625 C 18.058594 20.199219 17.925781 19.742188 17.5625 19.542969 Z M 17.5625 19.542969 L 10.863281 15.84375 L 10.136719 17.15625 L 16.835938 20.855469 Z M 17.5625 19.542969 "/>
<path style=" stroke:none;fill-rule:nonzero;fill:rgb(100%,100%,100%);fill-opacity:1;" d="M 24.449219 22 C 24.449219 23.796875 22.996094 25.25 21.199219 25.25 L 21.199219 26.75 C 23.824219 26.75 25.949219 24.625 25.949219 22 Z M 21.199219 25.25 C 19.40625 25.25 17.949219 23.796875 17.949219 22 L 16.449219 22 C 16.449219 24.625 18.578125 26.75 21.199219 26.75 Z M 17.949219 22 C 17.949219 20.203125 19.40625 18.75 21.199219 18.75 L 21.199219 17.25 C 18.578125 17.25 16.449219 19.375 16.449219 22 Z M 21.199219 18.75 C 22.996094 18.75 24.449219 20.203125 24.449219 22 L 25.949219 22 C 25.949219 19.375 23.824219 17.25 21.199219 17.25 Z M 21.199219 18.75 "/>
</g>
</svg>
