<svg width="34" height="34" viewBox="0 0 34 34" fill="none" xmlns="http://www.w3.org/2000/svg">
<path d="M17.0004 26.0999C22.0262 26.0999 26.1004 22.0257 26.1004 16.9999C26.1004 11.9741 22.0262 7.8999 17.0004 7.8999C11.9746 7.8999 7.90039 11.9741 7.90039 16.9999C7.90039 22.0257 11.9746 26.0999 17.0004 26.0999Z" stroke="white" stroke-width="1.8" stroke-linecap="round" stroke-linejoin="round"/>
<path d="M26.996 26.996L26.814 26.814M26.814 7.186L26.996 7.004L26.814 7.186ZM7.004 26.996L7.186 26.814L7.004 26.996ZM17 3.112V3V3.112ZM17 31V30.888V31ZM3.112 17H3H3.112ZM31 17H30.888H31ZM7.186 7.186L7.004 7.004L7.186 7.186Z" stroke="white" stroke-width="2.4" stroke-linecap="round" stroke-linejoin="round"/>
</svg>
