<svg width="28" height="28" viewBox="0 0 28 28" fill="none" xmlns="http://www.w3.org/2000/svg">
<path d="M21.8 19.8604C24.7197 19.5705 27 17.1071 27 14.1111C27 10.6356 23.8074 7.90208 20.3935 8.39233C20.3893 8.39294 20.385 8.39075 20.3831 8.3869C19.0781 5.78549 16.3864 4 13.2778 4C9.13673 4 5.73568 7.16835 5.36654 11.2132C5.36607 11.2183 5.36168 11.2223 5.35649 11.2223C2.98673 11.2187 1 13.1778 1 15.5556C1 17.9488 2.9401 19.8889 5.33333 19.8889H6.2" stroke="#041557" stroke-width="1.5" stroke-linecap="round"/>
<path d="M10.75 17.6484L13.6464 14.752C13.8417 14.5567 14.1583 14.5567 14.3535 14.752L17.25 17.6484" stroke="#041557" stroke-width="1.5" stroke-linecap="round"/>
<path d="M14 15.7L14 23.5" stroke="#041557" stroke-width="1.5" stroke-linecap="round"/>
</svg>
